<svg enable-background="new 0 0 1205.1 812.2" viewBox="0 0 1205.1 812.2" xmlns="http://www.w3.org/2000/svg"><path d="m1091.4 134.1c-119.6-119.6-313.5-119.6-433 0l-189.6 189.5c-14.9 14.9-14.9 39.1 0 54l189.5 189.5 189.5 189.5c14.9 14.9 39.1 14.9 54 0l189.5-189.5c119.7-119.6 119.7-313.4.1-433z" fill="#00cdc2"/><path d="m630.8 161-162.5 162.5c-14.9 14.9-39.1 14.9-54 0l-162.6-162.5c-14.9-14.9-39.1-14.9-54 0l-162.5 162.5c-14.9 14.9-14.9 39.1 0 54l189.6 189.5 189.5 189.5c14.9 14.9 39.1 14.9 54 0l189.5-189.5 189.5-189.5c14.9-14.9 14.9-39.1 0-54l-162.5-162.5c-14.9-14.9-39.1-14.9-54 0z" fill="#e40046"/></svg>