<svg enable-background="new 0 0 1272.3 872.2" viewBox="0 0 1272.3 872.2" xmlns="http://www.w3.org/2000/svg"><g fill="none" stroke="#fff" stroke-miterlimit="10" stroke-width="34"><path d="m1125 164.1c-119.6-119.6-313.5-119.6-433 0l-189.6 189.5c-14.9 14.9-14.9 39.1 0 54l189.6 189.5 189.5 189.5c14.9 14.9 39.1 14.9 54 0l189.5-189.5c119.6-119.6 119.6-313.4 0-433z"/><path d="m664.4 191-162.5 162.5c-14.9 14.9-39.1 14.9-54 0l-162.5-162.5c-14.9-14.9-39.1-14.9-54 0l-162.6 162.5c-14.9 14.9-14.9 39.1 0 54l189.6 189.5 189.5 189.5c14.9 14.9 39.1 14.9 54 0l189.5-189.5 189.5-189.5c14.9-14.9 14.9-39.1 0-54l-162.5-162.5c-14.9-14.9-39.1-14.9-54 0z"/></g></svg>