<svg enable-background="new 0 0 1440 803.9" viewBox="0 0 1440 803.9" xmlns="http://www.w3.org/2000/svg" xmlns:xlink="http://www.w3.org/1999/xlink"><linearGradient id="a" gradientTransform="matrix(-1 0 0 -1 658.037 804)" gradientUnits="userSpaceOnUse" x1="-4318.031" x2="-266.49" y1="2452.95" y2="2452.95"><stop offset="0" stop-color="#00cdd4"/><stop offset=".1" stop-color="#00b1d0"/><stop offset=".221" stop-color="#0097cc"/><stop offset=".355" stop-color="#0083ca"/><stop offset=".506" stop-color="#0075c8"/><stop offset=".691" stop-color="#006dc6"/><stop offset="1" stop-color="#006ac6"/></linearGradient><clipPath id="b"><path d="m0 0h1440v803.9h-1440z"/></clipPath><linearGradient id="c"><stop offset="0" stop-color="#00cdc2"/><stop offset=".287" stop-color="#00a7c4"/><stop offset=".585" stop-color="#0086c5"/><stop offset=".833" stop-color="#0071c6"/><stop offset="1" stop-color="#006ac6"/></linearGradient><linearGradient id="d" gradientTransform="matrix(.9963 -.08626059 -.08626059 -.9963 39.401 864.5211)" gradientUnits="userSpaceOnUse" x1="693.635" x2="693.635" xlink:href="#c" y1="879.823" y2="-45.494"/><linearGradient id="e" gradientTransform="matrix(.9963 -.08626059 -.08626059 -.9963 39.401 864.5211)" gradientUnits="userSpaceOnUse" x1="693.635" x2="693.635" xlink:href="#c" y1="904.323" y2="54.85"/><clipPath id="f"><path d="m-129.6-4 48.1 555.4 1211.1 157.8c135 17.6 258.6-77.6 276.1-212.4l52.9-406.3-19.9-230.3z"/></clipPath><clipPath id="g" clip-path="url(#f)"><path d="m-129.6-4 48.1 555.4 1211.1 157.8c135 17.6 258.6-77.6 276.1-212.4l52.9-406.3-19.9-230.3z"/></clipPath><linearGradient id="h"><stop offset="0" stop-color="#fff"/><stop offset=".138" stop-color="#fff" stop-opacity=".862"/><stop offset="1" stop-color="#fff" stop-opacity="0"/></linearGradient><linearGradient id="i" gradientTransform="matrix(-.9963 .08626059 -.08626059 -.9963 694.9852 807.7584)" gradientUnits="userSpaceOnUse" x1="-798.173" x2="326.88" xlink:href="#h" y1="656.326" y2="656.326"/><clipPath id="j"><path d="m-129.6-4 48.1 555.4 1211.1 157.8c135 17.6 258.6-77.6 276.1-212.4l52.9-406.3-19.9-230.3z"/></clipPath><clipPath id="k" clip-path="url(#j)"><path d="m-129.6-4 48.1 555.4 1211.1 157.8c135 17.6 258.6-77.6 276.1-212.4l52.9-406.3-19.9-230.3z"/></clipPath><linearGradient id="l" gradientTransform="matrix(-.9963 .08626059 -.08626059 -.9963 694.9852 807.7584)" gradientUnits="userSpaceOnUse" x1="-657.702" x2="467.352" xlink:href="#h" y1="965.309" y2="965.309"/><path d="m1466.4-2160.4 1272.5 279.2c116.7 25.6 232.1-48.2 257.7-165l279.2-1272.5c25.6-116.7 141-190.6 257.7-165l1272.5 279.2c116.7 25.6 190.6 141 165 257.7l-325.7 1483.8-325.6 1483.8c-25.6 116.7-141 190.6-257.7 165l-1483.7-325.6-1483.8-325.6c-116.7-25.6-190.5-140.9-164.9-257.6l279.2-1272.5c25.5-116.7 140.9-190.5 257.6-164.9z" fill="url(#a)"/><g clip-path="url(#b)"><path d="m-129.6-4 48.1 555.4 1211.1 157.8c135 17.6 258.6-77.6 276.1-212.4l52.9-406.3-19.9-230.3z" fill="url(#d)"/><path d="m-129.6-4 48.1 555.4 1211.1 157.8c135 17.6 258.6-77.6 276.1-212.4l52.9-406.3-19.9-230.3z" fill="url(#e)"/></g><g clip-path="url(#b)"><path clip-path="url(#g)" d="m450.4 27.6 358.7 46.7c32.8 4.3 63-18.9 67.4-51.8l46.7-358.7c4.3-32.9 34.4-56.1 67.4-51.8l358.7 46.7c32.8 4.3 56.1 34.4 51.8 67.4l-54.5 418.3-54.6 418.3c-4.3 32.9-34.4 56.1-67.4 51.8l-418.2-54.5-418.3-54.6c-32.9-4.3-56.1-34.4-51.8-67.4l46.7-358.7c4.3-32.9 34.4-56 67.4-51.7z" fill="url(#i)" opacity=".14"/><path clip-path="url(#k)" d="m283.8-268.1 358.7 46.7c32.8 4.3 63-18.9 67.4-51.8l46.7-358.7c4.3-32.9 34.4-56.1 67.4-51.8l358.7 46.7c32.8 4.3 56.1 34.4 51.8 67.4l-54.5 418.2-54.5 418.3c-4.3 32.9-34.4 56.1-67.4 51.8l-418.3-54.5-418.3-54.5c-32.9-4.3-56.1-34.4-51.8-67.4l46.7-358.7c4.4-32.9 34.6-56 67.4-51.7z" fill="url(#l)" opacity=".24"/></g></svg>