<svg viewBox="0 0 1205.1 812.2" xmlns="http://www.w3.org/2000/svg"><path d="M1091.4 134.1c-119.6-119.6-313.5-119.6-433 0L468.8 323.6c-14.9 14.9-14.9 39.1 0 54l189.5 189.5 189.5 189.5c14.9 14.9 39.1 14.9 54 0l189.5-189.5c119.7-119.6 119.7-313.4.1-433z" fill="#00cdc2"/><path d="M630.8 161 468.3 323.5c-14.9 14.9-39.1 14.9-54 0L251.7 161c-14.9-14.9-39.1-14.9-54 0L35.2 323.5c-14.9 14.9-14.9 39.1 0 54L224.8 567l189.5 189.5c14.9 14.9 39.1 14.9 54 0L657.8 567l189.5-189.5c14.9-14.9 14.9-39.1 0-54L684.8 161c-14.9-14.9-39.1-14.9-54 0z" fill="#e40046"/></svg>