<svg clip-rule="evenodd" fill-rule="evenodd" stroke-linejoin="round" stroke-miterlimit="2" viewBox="0 0 199 39" xmlns="http://www.w3.org/2000/svg"><g fill="#fff" fill-rule="nonzero"><path d="M41.215 2.308a13.683 13.683 0 0 0-9.708 4.015l-9.001 9a1.003 1.003 0 0 0 0 1.416L40.507 34.74a.996.996 0 0 0 .708.293.994.994 0 0 0 .708-.293l9-9.001c2.594-2.593 4.022-6.041 4.022-9.708s-1.428-7.115-4.022-9.708a13.683 13.683 0 0 0-9.708-4.015m0 34.347a2.617 2.617 0 0 1-1.856-.768l-18-18a2.627 2.627 0 0 1 0-3.711l9-9.001c2.9-2.899 6.755-4.496 10.856-4.496s7.956 1.597 10.856 4.496c5.986 5.986 5.986 15.726 0 21.712l-9 9a2.617 2.617 0 0 1-1.856.768"/><path d="M10.343 7.308a1 1 0 0 0-.708.293l-7.718 7.718a.992.992 0 0 0-.294.708.99.99 0 0 0 .294.708l18 18.001a.996.996 0 0 0 .708.293.994.994 0 0 0 .708-.293l18.001-18.001a.994.994 0 0 0 .293-.708.996.996 0 0 0-.293-.708l-7.719-7.718a.994.994 0 0 0-.708-.293.996.996 0 0 0-.708.293l-7.718 7.718a2.625 2.625 0 0 1-3.711 0l-7.719-7.718a1 1 0 0 0-.708-.293m10.282 29.344c-.701 0-1.36-.273-1.855-.769l-18.001-18C.273 17.387 0 16.728 0 16.027s.273-1.36.769-1.855l7.718-7.719a2.628 2.628 0 0 1 3.712 0l7.718 7.719c.39.39 1.026.39 1.416 0l7.719-7.719c.495-.495 1.154-.768 1.855-.768s1.36.273 1.856.768l7.718 7.719c.496.495.769 1.154.769 1.855s-.273 1.36-.769 1.856l-18 18a2.607 2.607 0 0 1-1.856.769m49.845-7.057a2.593 2.593 0 0 1-.763-1.835V6.572l-3.234.37v23.417h5.832a2.592 2.592 0 0 1-1.835-.764m7.534.764h-3.268V14.018h3.268zm.371-21.294c0 .562-.202 1.04-.607 1.432-.404.394-.887.59-1.448.59a1.893 1.893 0 0 1-1.416-.59 1.975 1.975 0 0 1-.572-1.432c0-.561.19-1.038.572-1.431s.854-.59 1.416-.59c.561 0 1.044.197 1.448.59.405.393.607.87.607 1.431m17.656 4.953-6.199 16.341h-2.999l-6.065-15.802 3.1-1.146 4.515 12.399 4.313-11.792zm8.008 2.325c-1.235 0-2.218.388-2.948 1.163-.73.774-1.174 1.847-1.331 3.217h8.389c-.427-2.92-1.797-4.38-4.11-4.38m.101-2.763c2.359 0 4.138.792 5.34 2.376 1.202 1.583 1.803 3.61 1.803 6.081v.876h-11.59c.134 1.595.645 2.853 1.533 3.773.887.922 2.207 1.382 3.959 1.382.853 0 1.6-.106 2.24-.32.64-.213 1.533-.59 2.679-1.129l1.01 2.359c-1.976 1.19-3.953 1.785-5.929 1.785-2.853 0-5.043-.775-6.571-2.324-1.527-1.55-2.29-3.639-2.29-6.267 0-1.685.314-3.178.943-4.482.628-1.301 1.533-2.313 2.712-3.032 1.179-.718 2.566-1.078 4.161-1.078m22.43 13.713V16.95a6.534 6.534 0 0 0-1.803-1.196c-.64-.281-1.398-.421-2.274-.421-1.73 0-3.049.634-3.958 1.903-.91 1.269-1.377 2.904-1.399 4.902 0 2.112.438 3.791 1.314 5.038.876 1.246 2.201 1.869 3.976 1.869 1.595 0 2.976-.584 4.144-1.752m2.123 3.066h-1.382l-.37-1.28c-.652.539-1.36.96-2.123 1.263a6.343 6.343 0 0 1-2.358.455c-2.359 0-4.19-.786-5.492-2.358-1.303-1.572-1.954-3.661-1.954-6.267.022-1.639.331-3.111.926-4.413.595-1.303 1.46-2.326 2.595-3.067 1.133-.741 2.487-1.112 4.059-1.112 1.303 0 2.628.495 3.976 1.483V6.91l2.123-.304zm10.368-15.027c-1.55 0-2.752.5-3.605 1.499-.854 1-1.359 2.342-1.516 4.027h9.939c-.36-3.684-1.966-5.526-4.818-5.526m.101-1.752c2.313 0 4.032.792 5.155 2.375 1.123 1.584 1.685 3.701 1.685 6.351h-12.13c.022 2.089.517 3.746 1.483 4.97.965 1.224 2.493 1.836 4.582 1.836.898 0 1.752-.118 2.561-.354a13.95 13.95 0 0 0 2.56-1.061l.708 1.55c-.966.517-1.87.904-2.713 1.162-.842.258-1.847.388-3.015.388-2.741 0-4.807-.786-6.199-2.359-1.393-1.572-2.089-3.683-2.089-6.334.022-2.538.679-4.593 1.971-6.166 1.291-1.572 3.105-2.358 5.441-2.358m13.919 17.217c-.764 0-1.657-.118-2.679-.354s-1.825-.544-2.409-.927l.674-1.549c1.572.763 3.066 1.145 4.481 1.145 1.393 0 2.482-.236 3.268-.707.786-.472 1.18-1.157 1.18-2.056 0-1.302-1.483-2.47-4.448-3.503-1.572-.517-2.847-1.146-3.824-1.887s-1.465-1.696-1.465-2.864c0-1.415.539-2.521 1.617-3.319 1.078-.797 2.538-1.196 4.38-1.196.741 0 1.617.13 2.628.388s1.774.578 2.291.96l-.674 1.482a16.165 16.165 0 0 0-2.055-.842c-.629-.202-1.381-.303-2.258-.303-1.144 0-2.088.252-2.829.758-.742.505-1.113 1.151-1.113 1.937.024.697.399 1.286 1.13 1.769.73.483 1.769.949 3.117 1.398 3.638 1.28 5.458 2.965 5.458 5.054 0 1.438-.562 2.567-1.685 3.386-1.123.82-2.718 1.23-4.784 1.23m12.041-.438h-2.122V14.018h2.122zm.539-21.496c0 .45-.163.826-.488 1.129a1.61 1.61 0 0 1-1.129.455c-.472 0-.854-.152-1.146-.455s-.438-.679-.438-1.129c0-.448.146-.825.438-1.128s.674-.455 1.146-.455c.426 0 .803.152 1.129.455.325.303.488.68.488 1.128m14.305 18.43V16.95a6.534 6.534 0 0 0-1.803-1.196c-.64-.281-1.398-.421-2.274-.421-1.73 0-3.049.634-3.958 1.903-.91 1.269-1.377 2.904-1.399 4.902 0 2.112.438 3.791 1.314 5.038.876 1.246 2.201 1.869 3.976 1.869 1.595 0 2.976-.584 4.144-1.752m2.123 5.155c0 1.078-.282 2.044-.843 2.898-.561.853-1.37 1.527-2.426 2.021s-2.279.741-3.672.741c-.741 0-1.69-.134-2.847-.404-1.157-.269-2.061-.595-2.712-.977l.64-1.55c.719.337 1.449.612 2.19.826.741.213 1.628.331 2.662.353 1.437 0 2.611-.337 3.521-1.01.909-.674 1.364-1.651 1.364-2.932v-3.032c-1.28.943-2.65 1.415-4.11 1.415-2.359 0-4.19-.786-5.492-2.358-1.303-1.572-1.954-3.661-1.954-6.267.022-1.639.331-3.111.926-4.413.595-1.303 1.46-2.326 2.595-3.067 1.133-.741 2.487-1.112 4.059-1.112 1.37 0 2.785.562 4.245 1.685l.472-1.246h1.382zm11.654-17.082c-.854 0-1.848.32-2.982.96s-2.072 1.432-2.813 2.376v11.657h-2.089v-16.34h1.718l.337 2.493c.696-.809 1.629-1.5 2.797-2.073 1.167-.572 2.257-.859 3.268-.859 1.685 0 2.942.495 3.773 1.483.831.989 1.247 2.303 1.247 3.942v11.32h-2.089V19.409c0-2.695-1.056-4.043-3.167-4.043"/></g></svg>