<svg viewBox="0 0 1435.3 888.1" xmlns="http://www.w3.org/2000/svg" xmlns:xlink="http://www.w3.org/1999/xlink"><linearGradient id="a"><stop offset="0" stop-color="#e40046"/><stop offset=".152" stop-color="#db0048"/><stop offset=".396" stop-color="#c4004e"/><stop offset=".701" stop-color="#9d0057"/><stop offset="1" stop-color="#710062"/></linearGradient><linearGradient id="b" gradientTransform="scale(-1 1) rotate(5.981 -77883.042 19831.05)" gradientUnits="userSpaceOnUse" x1="-3512.247" x2="-2704.165" xlink:href="#a" y1="-6793.665" y2="-8193.303"/><linearGradient id="c" gradientTransform="scale(-1 1) rotate(5.981 -77883.042 19831.05)" gradientUnits="userSpaceOnUse" x1="-3533.611" x2="-2791.765" xlink:href="#a" y1="-6756.661" y2="-8041.576"/><path d="m1435.3 888.1 2.8-741.6-1152.2-129C157.5 3.1 41.8 95.4 27.5 223.8l-43.4 386.5L0 888.1z" fill="url(#b)"/><path d="m1435.3 888.1 2.8-741.6-1152.2-129C157.5 3.1 41.8 95.4 27.5 223.8l-43.4 386.5L0 888.1z" fill="url(#c)"/><g fill="#fff"><circle cx="1101" cy="273.1" opacity=".19" transform="rotate(-5.981 1101.277 273.184)" r="6.5"/><circle cx="934" cy="172.9" opacity=".77" transform="rotate(-5.981 934.22 172.966)" r="6.5"/><circle cx="283" cy="134.5" opacity=".19" transform="rotate(-5.981 283.11 134.546)" r="6.5"/><circle cx="110.6" cy="542.8" opacity=".43" transform="rotate(-5.981 110.606 542.963)" r="6.5"/><circle cx="295.6" cy="722.1" opacity=".77" r="6.5"/><circle cx="1305.4" cy="342.9" opacity=".19" transform="rotate(-5.981 1305.743 342.971)" r="6.5"/><circle cx="1164.1" cy="488.1" opacity=".43" transform="rotate(-5.981 1164.417 488.245)" r="6.5"/><circle cx="1233.5" cy="806.4" opacity=".43" transform="rotate(-5.981 1233.85 806.58)" r="6.5"/><circle cx="1379.5" cy="603.9" opacity=".77" transform="rotate(-5.981 1379.866 604.055)" r="6.5"/><circle cx="1050" cy="615.6" opacity=".19" r="6.5"/><circle cx="394.4" cy="554.4" opacity=".19" r="6.5"/><circle cx="74.7" cy="806.4" opacity=".19" r="6.5"/><circle cx="540.7" cy="187.5" opacity=".43" transform="rotate(-5.981 540.823 187.585)" r="6.5"/><circle cx="810.1" cy="753" opacity=".69" r="6.5"/><circle cx="1005.1" cy="397" opacity=".69" r="6.5"/><circle cx="175.8" cy="316.6" opacity=".43" transform="rotate(-5.981 175.807 316.644)" r="6.5"/><circle cx="331.3" cy="326.6" opacity=".19" r="6.5"/></g></svg>