<svg viewBox="0 0 1272.3 872.2" xmlns="http://www.w3.org/2000/svg"><g fill="none" stroke="#fff" stroke-miterlimit="10" stroke-width="34"><path d="M1125 164.1c-119.6-119.6-313.5-119.6-433 0L502.4 353.6c-14.9 14.9-14.9 39.1 0 54L692 597.1l189.5 189.5c14.9 14.9 39.1 14.9 54 0L1125 597.1c119.6-119.6 119.6-313.4 0-433z"/><path d="M664.4 191 501.9 353.5c-14.9 14.9-39.1 14.9-54 0L285.4 191c-14.9-14.9-39.1-14.9-54 0L68.8 353.5c-14.9 14.9-14.9 39.1 0 54L258.4 597l189.5 189.5c14.9 14.9 39.1 14.9 54 0L691.4 597l189.5-189.5c14.9-14.9 14.9-39.1 0-54L718.4 191c-14.9-14.9-39.1-14.9-54 0z"/></g></svg>