<svg clip-rule="evenodd" fill-rule="evenodd" stroke-linejoin="round" stroke-miterlimit="2" viewBox="0 0 23 22" xmlns="http://www.w3.org/2000/svg"><g fill="#fff" fill-rule="nonzero"><path d="M19.986 15.024a4.72 4.72 0 0 1-4.716 4.716H7.185a4.722 4.722 0 0 1-4.717-4.716V6.939a4.722 4.722 0 0 1 4.717-4.716h8.085a4.72 4.72 0 0 1 4.716 4.716zM15.27.202H7.185A6.737 6.737 0 0 0 .448 6.939v8.085a6.737 6.737 0 0 0 6.737 6.737h8.085a6.737 6.737 0 0 0 6.737-6.737V6.939A6.737 6.737 0 0 0 15.27.202"/><path d="M11.228 14.35a3.373 3.373 0 0 1-3.368-3.369c0-1.858 1.512-3.368 3.368-3.368s3.369 1.51 3.369 3.368a3.374 3.374 0 0 1-3.369 3.369m0-8.759a5.39 5.39 0 1 0 0 10.78 5.39 5.39 0 0 0 0-10.78m6.512-.404a.718.718 0 1 1-1.437 0 .718.718 0 0 1 1.437 0"/></g></svg>