<svg clip-rule="evenodd" fill-rule="evenodd" stroke-linejoin="round" stroke-miterlimit="2" viewBox="0 0 24 15" xmlns="http://www.w3.org/2000/svg"><g fill="#0541ff"><path d="M8.529 11.72c-.347.167-.835.25-1.459.25H3.574V8.183h3.544c.617.004 1.098.086 1.441.239.612.277.916.783.916 1.525 0 .873-.314 1.461-.946 1.773M3.574 2.699h3.133c.689 0 1.257.074 1.702.222.516.214.773.649.773 1.313 0 .595-.196 1.012-.585 1.246-.391.235-.9.353-1.523.353h-3.5zm6.714 4.115c.483-.243.848-.514 1.099-.806.446-.528.665-1.226.665-2.093 0-.843-.219-1.564-.659-2.168C10.659.762 9.417.259 7.661.232H.704v14.202H7.19c.732 0 1.408-.063 2.034-.191a3.998 3.998 0 0 0 1.627-.713 3.98 3.98 0 0 0 1.02-1.117c.428-.667.641-1.422.641-2.264 0-.816-.187-1.511-.56-2.081-.377-.571-.931-.989-1.664-1.254" fill-rule="nonzero"/><path d="M15.591.895h6.17v1.768h-6.17z"/><path d="M16.311 8.143c.102-.683.35-1.225.742-1.625.394-.399.95-.6 1.662-.601.657 0 1.205.188 1.653.565.441.38.69.932.741 1.661zm7.594-.272c-.128-.823-.41-1.546-.851-2.171a4.287 4.287 0 0 0-1.837-1.554c-.742-.329-1.576-.494-2.505-.492-1.559 0-2.827.488-3.806 1.456-.977.971-1.467 2.368-1.467 4.188 0 1.941.541 3.343 1.627 4.204 1.082.862 2.331 1.291 3.75 1.291 1.717 0 3.052-.511 4.006-1.53.609-.643.955-1.277 1.03-1.899H21.01a2.284 2.284 0 0 1-.574.722c-.396.321-.911.481-1.543.481-.602 0-1.111-.132-1.536-.396-.702-.423-1.069-1.162-1.116-2.215h7.757c.011-.907-.017-1.605-.093-2.085" fill-rule="nonzero"/></g></svg>