<svg clip-rule="evenodd" fill-rule="evenodd" stroke-linejoin="round" stroke-miterlimit="2" viewBox="0 0 11 19" xmlns="http://www.w3.org/2000/svg"><path d="m10.142.212-2.413-.004c-2.711 0-4.464 1.798-4.464 4.58v2.111h-2.426c-.21 0-.379.17-.379.38v3.059c0 .21.169.379.379.379h2.426v7.72c0 .21.171.38.381.38h3.165c.209 0 .38-.17.38-.38v-7.72h2.836c.21 0 .381-.169.381-.379l.001-3.059c0-.101-.041-.197-.113-.269-.07-.07-.167-.111-.268-.111h-2.837v-1.79c0-.86.205-1.297 1.325-1.297h1.626c.209 0 .379-.171.379-.379v-2.842c0-.209-.169-.379-.379-.379" fill="#3b5998" fill-rule="nonzero"/></svg>