<svg clip-rule="evenodd" fill-rule="evenodd" stroke-linejoin="round" stroke-miterlimit="2" viewBox="0 0 11 19" xmlns="http://www.w3.org/2000/svg"><path d="M10.142.212 7.729.208c-2.711 0-4.464 1.798-4.464 4.58v2.111H.839c-.21 0-.379.17-.379.38v3.059c0 .21.169.379.379.379h2.426v7.72c0 .21.171.38.381.38h3.165a.38.38 0 0 0 .38-.38v-7.72h2.836a.38.38 0 0 0 .381-.379l.001-3.059a.38.38 0 0 0-.381-.38H7.191v-1.79c0-.86.205-1.297 1.325-1.297h1.626a.38.38 0 0 0 .379-.379V.591a.379.379 0 0 0-.379-.379" fill="#3b5998" fill-rule="nonzero"/></svg>