<svg clip-rule="evenodd" fill-rule="evenodd" stroke-linejoin="round" stroke-miterlimit="2" viewBox="0 0 19 19" xmlns="http://www.w3.org/2000/svg"><g fill="#c400c4" fill-rule="nonzero"><path d="M16.7 12.776c0 2.1-1.708 3.809-3.808 3.809H6.364a3.813 3.813 0 0 1-3.809-3.809V6.248c0-2.1 1.708-3.808 3.809-3.808h6.528c2.1 0 3.808 1.708 3.808 3.808zM12.892.807H6.364a5.44 5.44 0 0 0-5.44 5.441v6.528a5.44 5.44 0 0 0 5.44 5.44h6.528a5.441 5.441 0 0 0 5.441-5.44V6.248A5.442 5.442 0 0 0 12.892.807"/><path d="M9.628 12.232a2.724 2.724 0 0 1-2.72-2.72c0-1.501 1.221-2.72 2.72-2.72s2.721 1.219 2.721 2.72a2.725 2.725 0 0 1-2.721 2.72m0-7.072a4.353 4.353 0 1 0 0 8.706 4.353 4.353 0 0 0 0-8.706m5.259-.327a.58.58 0 1 1-1.16 0 .58.58 0 0 1 1.16 0"/></g></svg>