<svg enable-background="new 0 0 1435.3 888.1" viewBox="0 0 1435.3 888.1" xmlns="http://www.w3.org/2000/svg" xmlns:xlink="http://www.w3.org/1999/xlink"><linearGradient id="a"><stop offset="0" stop-color="#e40046"/><stop offset=".152" stop-color="#db0048"/><stop offset=".396" stop-color="#c4004e"/><stop offset=".701" stop-color="#9d0057"/><stop offset="1" stop-color="#710062"/></linearGradient><linearGradient id="b" gradientTransform="matrix(-.9946 .1042 .1042 .9946 -1642.447 8223.3613)" gradientUnits="userSpaceOnUse" x1="-3512.247" x2="-2704.165" xlink:href="#a" y1="-6793.665" y2="-8193.303"/><linearGradient id="c" gradientTransform="matrix(-.9946 .1042 .1042 .9946 -1642.447 8223.3613)" gradientUnits="userSpaceOnUse" x1="-3533.611" x2="-2791.765" xlink:href="#a" y1="-6756.661" y2="-8041.576"/><path d="m1435.3 888.1 2.8-741.6-1152.2-129c-128.4-14.4-244.1 77.9-258.4 206.3l-43.4 386.5 15.9 277.8z" fill="url(#b)"/><path d="m1435.3 888.1 2.8-741.6-1152.2-129c-128.4-14.4-244.1 77.9-258.4 206.3l-43.4 386.5 15.9 277.8z" fill="url(#c)"/><g fill="#fff"><ellipse cx="1101" cy="273.1" opacity=".19" rx="6.5" ry="6.5" transform="matrix(.9946 -.1042 .1042 .9946 -22.4711 116.2401)"/><ellipse cx="934" cy="172.9" opacity=".77" rx="6.5" ry="6.5" transform="matrix(.9946 -.1042 .1042 .9946 -12.9377 98.2872)"/><ellipse cx="283" cy="134.5" opacity=".19" rx="6.5" ry="6.5" transform="matrix(.9946 -.1042 .1042 .9946 -12.4786 30.2325)"/><ellipse cx="110.6" cy="542.8" opacity=".43" rx="6.5" ry="6.5" transform="matrix(.9946 -.1042 .1042 .9946 -55.9747 14.4807)"/><circle cx="295.6" cy="722.1" opacity=".77" r="6.5"/><ellipse cx="1305.4" cy="342.9" opacity=".19" rx="6.5" ry="6.5" transform="matrix(.9946 -.1042 .1042 .9946 -28.6299 137.9254)"/><ellipse cx="1164.1" cy="488.1" opacity=".43" rx="6.5" ry="6.5" transform="matrix(.9946 -.1042 .1042 .9946 -44.5367 123.99)"/><ellipse cx="1233.5" cy="806.4" opacity=".43" rx="6.5" ry="6.5" transform="matrix(.9946 -.1042 .1042 .9946 -77.3292 132.9578)"/><ellipse cx="1379.5" cy="603.9" opacity=".77" rx="6.5" ry="6.5" transform="matrix(.9946 -.1042 .1042 .9946 -55.4314 147.0701)"/><circle cx="1050" cy="615.6" opacity=".19" r="6.5"/><circle cx="394.4" cy="554.4" opacity=".19" r="6.5"/><circle cx="74.7" cy="806.4" opacity=".19" r="6.5"/><ellipse cx="540.7" cy="187.5" opacity=".43" rx="6.5" ry="6.5" transform="matrix(.9946 -.1042 .1042 .9946 -16.6024 57.3749)"/><circle cx="810.1" cy="753" opacity=".69" r="6.5"/><circle cx="1005.1" cy="397" opacity=".69" r="6.5"/><ellipse cx="175.8" cy="316.6" opacity=".43" rx="6.5" ry="6.5" transform="matrix(.9946 -.1042 .1042 .9946 -32.0373 20.0427)"/><circle cx="331.3" cy="326.6" opacity=".19" r="6.5"/></g></svg>