<svg version="1.1" id="Camada_1" xmlns="http://www.w3.org/2000/svg" xmlns:xlink="http://www.w3.org/1999/xlink" x="0" y="0" viewBox="0 0 1440 803.9" xml:space="preserve" enable-background="new 0 0 1440 803.9"><style type="text/css">.st0{display:none}.st1{fill:url(#SVGID_1_)}.st2{display:inline;opacity:.3}.st3{clip-path:url(#SVGID_3_)}.st4{display:inline}.st5{clip-path:url(#SVGID_5_)}.st6{clip-path:url(#SVGID_7_)}.st7{fill:url(#SVGID_8_)}.st8{fill:url(#SVGID_9_)}.st9{clip-path:url(#SVGID_14_)}.st10{opacity:.14;clip-path:url(#SVGID_15_);fill:url(#SVGID_16_);enable-background:new}.st11{clip-path:url(#SVGID_19_)}.st12{opacity:.24;clip-path:url(#SVGID_20_);fill:url(#SVGID_21_);enable-background:new}</style><linearGradient id="SVGID_1_" gradientUnits="userSpaceOnUse" x1="-4318.031" y1="2452.95" x2="-266.49" y2="2452.95" gradientTransform="matrix(-1 0 0 -1 658.037 804)"><stop offset="0" stop-color="#00CDD4"/><stop offset=".1" stop-color="#00B1D0"/><stop offset=".221" stop-color="#0097CC"/><stop offset=".355" stop-color="#0083CA"/><stop offset=".506" stop-color="#0075C8"/><stop offset=".691" stop-color="#006DC6"/><stop offset="1" stop-color="#006AC6"/></linearGradient><path class="st1" d="M1466.4-2160.4l1272.5,279.2c116.7,25.6,232.1-48.2,257.7-165l279.2-1272.5c25.6-116.7,141-190.6,257.7-165	L4806-3204.5c116.7,25.6,190.6,141,165,257.7L4645.3-1463L4319.7,20.8c-25.6,116.7-141,190.6-257.7,165L2578.3-139.8L1094.5-465.4	C977.8-491,904-606.3,929.6-723l279.2-1272.5C1234.3-2112.2,1349.7-2186,1466.4-2160.4z"/><g id="Modelo_30" class="st0"><g class="st2"><g><defs><rect id="SVGID_2_" x="-1609.5" width="1440" height="3792"/></defs><clipPath id="SVGID_3_"><use xlink:href="#SVGID_2_" overflow="visible"/></clipPath><g class="st3"><image width="1920" height="3792" xlink:href="../Ref/13a84369535713.5b850aa219bba.png" transform="matrix(1.0256 0 0 1 -1873.4656 0)" overflow="visible" enable-background="new"/></g></g></g></g><g id="Modelo_100" class="st0"><g class="st4"><g><defs><rect id="SVGID_4_" x="-1609.5" width="1440" height="3792"/></defs><clipPath id="SVGID_5_"><use xlink:href="#SVGID_4_" overflow="visible"/></clipPath><g class="st5"><image width="1920" height="3792" xlink:href="../Ref/13a84369535713.5b850aa219bba.png" transform="matrix(1.0256 0 0 1 -1873.4656 0)" overflow="visible" enable-background="new"/></g></g></g></g><g><defs><rect id="SVGID_6_" width="1440" height="803.9"/></defs><clipPath id="SVGID_7_"><use xlink:href="#SVGID_6_" overflow="visible"/></clipPath><g class="st6"><linearGradient id="SVGID_8_" gradientUnits="userSpaceOnUse" x1="693.635" y1="879.823" x2="693.635" y2="-45.494" gradientTransform="matrix(0.9963 -8.626059e-02 -8.626059e-02 -0.9963 39.401 864.5211)"><stop offset="0" stop-color="#00CDC2"/><stop offset=".287" stop-color="#00A7C4"/><stop offset=".585" stop-color="#0086C5"/><stop offset=".833" stop-color="#0071C6"/><stop offset="1" stop-color="#006AC6"/></linearGradient><path class="st7" d="M-129.6-4l48.1,555.4l1211.1,157.8c135,17.6,258.6-77.6,276.1-212.4l52.9-406.3l-19.9-230.3L-129.6-4z"/><linearGradient id="SVGID_9_" gradientUnits="userSpaceOnUse" x1="693.635" y1="904.323" x2="693.635" y2="54.85" gradientTransform="matrix(0.9963 -8.626059e-02 -8.626059e-02 -0.9963 39.401 864.5211)"><stop offset="0" stop-color="#00CDC2"/><stop offset=".287" stop-color="#00A7C4"/><stop offset=".585" stop-color="#0086C5"/><stop offset=".833" stop-color="#0071C6"/><stop offset="1" stop-color="#006AC6"/></linearGradient><path class="st8" d="M-129.6-4l48.1,555.4l1211.1,157.8c135,17.6,258.6-77.6,276.1-212.4l52.9-406.3l-19.9-230.3L-129.6-4z"/></g><g class="st6"><g><defs><path id="SVGID_10_" d="M-129.6-4l48.1,555.4l1211.1,157.8c135,17.6,258.6-77.6,276.1-212.4l52.9-406.3l-19.9-230.3L-129.6-4z"/></defs><clipPath id="SVGID_11_"><use xlink:href="#SVGID_10_" overflow="visible"/></clipPath></g><g><defs><path id="SVGID_12_" d="M-129.6-4l48.1,555.4l1211.1,157.8c135,17.6,258.6-77.6,276.1-212.4l52.9-406.3l-19.9-230.3L-129.6-4z"/></defs><defs><path id="SVGID_13_" d="M-129.6-4l48.1,555.4l1211.1,157.8c135,17.6,258.6-77.6,276.1-212.4l52.9-406.3l-19.9-230.3L-129.6-4z"/></defs><clipPath id="SVGID_14_"><use xlink:href="#SVGID_12_" overflow="visible"/></clipPath><clipPath id="SVGID_15_" class="st9"><use xlink:href="#SVGID_13_" overflow="visible"/></clipPath><linearGradient id="SVGID_16_" gradientUnits="userSpaceOnUse" x1="-798.173" y1="656.326" x2="326.88" y2="656.326" gradientTransform="matrix(-0.9963 8.626059e-02 -8.626059e-02 -0.9963 694.9852 807.7584)"><stop offset="0" stop-color="#FFFFFF"/><stop offset=".138" stop-color="#FFFFFF" stop-opacity="0.8617"/><stop offset="1" stop-color="#FFFFFF" stop-opacity="0"/></linearGradient><path class="st10" d="M450.4,27.6l358.7,46.7c32.8,4.3,63-18.9,67.4-51.8l46.7-358.7c4.3-32.9,34.4-56.1,67.4-51.8l358.7,46.7 c32.8,4.3,56.1,34.4,51.8,67.4l-54.5,418.3L1292,562.7c-4.3,32.9-34.4,56.1-67.4,51.8L806.4,560l-418.3-54.6 c-32.9-4.3-56.1-34.4-51.8-67.4L383,79.3C387.3,46.4,417.4,23.3,450.4,27.6z"/></g><g><defs><path id="SVGID_17_" d="M-129.6-4l48.1,555.4l1211.1,157.8c135,17.6,258.6-77.6,276.1-212.4l52.9-406.3l-19.9-230.3L-129.6-4z"/></defs><defs><path id="SVGID_18_" d="M-129.6-4l48.1,555.4l1211.1,157.8c135,17.6,258.6-77.6,276.1-212.4l52.9-406.3l-19.9-230.3L-129.6-4z"/></defs><clipPath id="SVGID_19_"><use xlink:href="#SVGID_17_" overflow="visible"/></clipPath><clipPath id="SVGID_20_" class="st11"><use xlink:href="#SVGID_18_" overflow="visible"/></clipPath><linearGradient id="SVGID_21_" gradientUnits="userSpaceOnUse" x1="-657.702" y1="965.309" x2="467.352" y2="965.309" gradientTransform="matrix(-0.9963 8.626059e-02 -8.626059e-02 -0.9963 694.9852 807.7584)"><stop offset="0" stop-color="#FFFFFF"/><stop offset=".138" stop-color="#FFFFFF" stop-opacity="0.8617"/><stop offset="1" stop-color="#FFFFFF" stop-opacity="0"/></linearGradient><path class="st12" d="M283.8-268.1l358.7,46.7c32.8,4.3,63-18.9,67.4-51.8l46.7-358.7c4.3-32.9,34.4-56.1,67.4-51.8l358.7,46.7 c32.8,4.3,56.1,34.4,51.8,67.4L1180-151.4l-54.5,418.3c-4.3,32.9-34.4,56.1-67.4,51.8l-418.3-54.5l-418.3-54.5 c-32.9-4.3-56.1-34.4-51.8-67.4l46.7-358.7C220.8-249.3,251-272.4,283.8-268.1z"/></g></g></g></svg>