<svg enable-background="new 0 0 490.7 508" viewBox="0 0 490.7 508" xmlns="http://www.w3.org/2000/svg" xmlns:xlink="http://www.w3.org/1999/xlink"><linearGradient id="a" gradientTransform="matrix(.9984 -.05720889 .05720889 .9984 -7.7419 14.4402)" gradientUnits="userSpaceOnUse" x1="432.2679" x2="202.1098" y1="447.9215" y2="49.276"><stop offset="0" stop-color="#e40046"/><stop offset=".1518" stop-color="#db0048"/><stop offset=".3964" stop-color="#c4004e"/><stop offset=".7012" stop-color="#9d0057"/><stop offset="1" stop-color="#710062"/></linearGradient><linearGradient id="b" gradientTransform="matrix(.8627 .5058 -.5058 .8627 316.9068 -385.3543)" gradientUnits="userSpaceOnUse" x1="241.4038" x2="285.2657" y1="544.2834" y2="793.1158"><stop offset="0" stop-color="#c8c8c8"/><stop offset="1" stop-color="#b6b6b6"/></linearGradient><linearGradient id="c"><stop offset="0" stop-color="#fbffff"/><stop offset="1" stop-color="#fff" stop-opacity="0"/></linearGradient><linearGradient id="d" gradientUnits="userSpaceOnUse" x1="184.5908" x2="226.4773" xlink:href="#c" y1="326.9012" y2="255.6941"/><linearGradient id="e" gradientTransform="matrix(.866 -.5 .5 .866 17.0067 447.5617)" gradientUnits="userSpaceOnUse" x1="248.3891" x2="263.142" xlink:href="#c" y1="-98.9476" y2="-124.0275"/><linearGradient id="f" gradientUnits="userSpaceOnUse" x1="239.6358" x2="196.7872" xlink:href="#c" y1="297.0408" y2="247.2471"/><clipPath id="g"><path d="m224.9 193.8c-11.7.8-21.8-8.1-22.6-19.7l-3.5-51.5c-.8-11.7 8.1-21.8 19.7-22.6 11.7-.8 21.8 8.1 22.6 19.7l3.5 51.5c.8 11.6-8.1 21.8-19.7 22.6z"/></clipPath><path d="m385.3 468.1 94.8-397.6c6-25.3-17.9-47.4-42.6-39.5l-402.8 129c-24.7 7.9-31.3 39.8-11.7 56.9l308 268.6c18.9 16.5 48.5 7 54.3-17.4z" fill="url(#a)"/><path d="m469.4 77.2-26.9 5.7-1.2-9.1z" fill="#8f7d96"/><path d="m440.2 66.1 29.2 11.1-26.6-5.3 26.6 5.3-35 3.7s2.5-3.5 4.2-7.2c.3-.7 0-1.4.3-2.1.7-2.2 1.3-4.2 1.3-5.5z" fill="#fff"/><path d="m469.4 77.2-30.7-5.4-.2 1.9z" fill="#8f7d96"/><g fill="#fff"><path d="m326.8 105.3c-2.4 2.7-5.1 5-8.5 6.2-1.4.5-1 2.3.5 1.8 3.6-1.3 6.5-3.5 9.1-6.2-.5-.5-.8-1.1-1.1-1.8z"/><path d="m332.9 96.4c-.9 1.5-1.8 3.1-2.9 4.6.4.7.8 1.3 1.3 1.9 1.1-1.5 2.1-3.1 3-4.7-.4-.6-.9-1.2-1.4-1.8z"/><path d="m346.7 74c-1.1 1.4-2.1 2.8-3.1 4.2.4.7.8 1.4 1.2 2.1 1-1.5 2-2.9 3.1-4.3-.4-.7-.8-1.4-1.2-2z"/><path d="m378.6 59.9c-2.9-.2-5.7-.2-8.5.3v1.7c1.8-.1 4.4 0 7.3.3.4-.8.8-1.6 1.2-2.3z"/><path d="m390.7 62.9c-1.9-.8-3.8-1.5-5.8-2-.4.8-.7 1.6-1.1 2.3 1.8.4 3.6.9 5.2 1.5.6-.5 1.2-1.2 1.7-1.8z"/><path d="m393.9 79.6c-.6.6-1.4 1.3-2.3 2 .2.6.4 1.2.5 1.8 1.2-.7 2.3-1.5 3.3-2.4-.5-.4-1-.9-1.5-1.4z"/><path d="m388.3 76.3c.7-.8 1.5-1.5 2.3-2.2l-.8-1.8c-1 .7-2 1.4-2.9 2.2.5.6 1 1.2 1.4 1.8z"/><path d="m412.2 68.1c0 .6.1 1.2.1 1.8 2.1.2 4.3.5 6.4.8.1-.6.2-1.3.3-1.9-2.3-.3-4.5-.6-6.8-.7z"/><path d="m435.1 73c-3.1-1.1-6.4-2-9.9-2.8-.1.7-.2 1.3-.4 2 3.1.8 6.1 1.7 8.8 2.6 1.2.3 2.9-1.3 1.5-1.8z"/><path d="m405.3 69.8c-.1-.6-.2-1.2-.3-1.8-2.1.1-4.2.4-6.3.8-.6-1-1.4-1.9-2.4-2.7-.7.4-1.3.9-2 1.4.8.6 1.5 1.2 2 1.9h-.1c-.8.2-1.7.5-2.5.9.2.6.4 1.1.6 1.7.2-.1.4-.2.7-.3.7-.3 1.5-.5 2.2-.7.5 1.4.4 2.9-.3 4.6.7.2 1.4.4 2.2.6 0-.1.1-.2.1-.2.8-2 .9-3.8.3-5.4 1.9-.5 3.9-.7 5.8-.8z"/><path d="m389.4 83c-1.3.7-2.6 1-3.5.4-.8-.6-.5-1.8-.1-2.8-.8 0-1.7 0-2.5-.1-.1.5-.2 1-.3 1.6-.3 3.9 3.7 3.7 6.4 2.7.1 0 .2-.1.4-.2-.2-.6-.3-1.1-.4-1.6z"/><path d="m365.7 61.1c-1.8.5-3.5 1.1-5.2 1.9.1.5.2 1 .3 1.6 1.6-.8 3.4-1.5 5.3-2-.2-.5-.3-1-.4-1.5z"/><path d="m355.4 65.8c-1.9 1.3-3.7 2.7-5.3 4.3.3.7.6 1.4.9 2 1.6-1.7 3.3-3.3 5.1-4.7-.3-.4-.5-1-.7-1.6z"/><path d="m339.4 85c-1.3 2.2-2.6 4.4-3.8 6.6.5.7.9 1.4 1.4 2.1 1-1.7 1.9-3.5 2.8-5.1.4-.7.8-1.4 1.2-2.1-.5-.4-1.1-.9-1.6-1.5z"/></g><path d="m293.7 345.9c13.5-16.1 21.8-36.8 22.2-59.4.9-52.5-41.4-96.1-93.8-96.9-52.9-.7-96.2 41.7-96.6 94.5-.2 23 7.9 44.2 21.3 60.7 1 1.3 2.1 2.5 3.2 3.8 7.1 8.5 23.9 30.4 29.6 52.1 1.1 4.1 4.8 7 9 7l31.2.2 31.2.2c4.3 0 8-2.8 9.1-6.9 6-21.7 23.1-43.3 30.3-51.7 1.2-1.1 2.3-2.3 3.3-3.6z" fill="url(#b)"/><path d="m287.6 346c12.3-14.7 19.9-33.6 20.2-54.3.8-47.9-37.8-87.8-85.7-88.4-48.3-.7-87.8 38.1-88.2 86.3-.1 21 7.2 40.3 19.5 55.5 1 1.2 1.9 2.3 2.9 3.4 6.5 7.8 21.8 27.7 27 47.6 1 3.8 4.4 6.4 8.2 6.4l28.5.2 28.5.2c3.9 0 7.3-2.6 8.3-6.3 5.5-19.8 21.1-39.5 27.7-47.2 1.2-1.1 2.2-2.2 3.1-3.4z" fill="#fff" opacity=".63"/><path d="m196.6 450.7 45.8.3s-.8 17.2-23 17.1c-22.2-.2-22.8-17.4-22.8-17.4z" fill="#1a1926"/><path d="m253.2 420.5-67-.5c-3.4 0-6.1-2.8-6.1-6.2 0-3.4 2.8-6.1 6.2-6.1l67 .5c3.4 0 6.1 2.8 6.1 6.2 0 3.4-2.8 6.1-6.2 6.1z" fill="#c0becb"/><path d="m253.1 432.7-67-.5c-3.4 0-6.1-2.8-6.1-6.2 0-3.4 2.8-6.1 6.2-6.1l67 .5c3.4 0 6.1 2.8 6.1 6.2 0 3.4-2.8 6.1-6.2 6.1z" fill="#a5a2b2"/><path d="m250.1 444.9-61.1-.4c-3.2 0-5.8-2.7-5.8-5.9v-.5c0-3.2 2.7-5.8 5.9-5.8l61.1.4c3.2 0 5.8 2.7 5.8 5.9v.5c0 3.2-2.7 5.9-5.9 5.8z" fill="#c0becb"/><path d="m245.9 457.2-52.8-.4c-3 0-5.5-2.5-5.5-5.5v-1.3c0-3 2.5-5.5 5.5-5.5l52.8.4c3 0 5.5 2.5 5.5 5.5v1.3c0 3-2.5 5.5-5.5 5.5z" fill="#a5a2b2"/><path d="m248.4 196.7c12.1 4.6 42.9 19.2 56.6 51.9 1.1 2.7-.2 5.9-2.9 7.1-2.8 1.2-6.1-.2-7.2-3-4.1-10.5-16.8-33.9-50.8-43.2-3.1-.9-4.8-4.2-3.7-7.2l1-2.5c1.1-2.7 4.2-4.1 7-3.1z" fill="#fff"/><path d="m229.2 200.8c0 3.3-2.7 6-6 6s-6-2.7-6-6 2.7-6 6-6 6 2.6 6 6z" fill="#fff"/><path d="m211.2 202.6c0 2.3-1.9 4.2-4.2 4.2s-4.2-1.9-4.2-4.2 1.9-4.2 4.2-4.2c2.3-.1 4.2 1.8 4.2 4.2z" fill="#fff"/><path d="m169.8 209.9s-37.7 23-39.4 66.6 44.4 70.8 51.1 98 17 21.8 37.8 23.9 70.2-77.5 56.8-95.3-105.6-16.6-88-43c17.7-26.3 12.7-68.2-18.3-50.2z" fill="url(#d)"/><path d="m217.5 208.5c6.2 10.8-4.3 28.6-23.5 39.7s-39.9 11.3-46.1.5 4.3-28.6 23.5-39.7 39.9-11.3 46.1-.5z" fill="url(#e)"/><circle cx="226.3" cy="281.5" fill="url(#f)" r="63.7"/><path d="m290.9 365.6c25.3-18.1 40.1-50.7 36.4-81.5-.1-.6-2.5-.1-2.4.7 3.6 30.4-10.9 62.7-35.9 80.7-1 .7 1.4.5 1.9.1z" fill="#fff"/><circle cx="324.1" cy="273.2" fill="#fff" r="2.5"/><path d="m170 189.4c0 1.5-1.2 2.7-2.7 2.7s-2.7-1.2-2.7-2.7 1.2-2.7 2.7-2.7 2.7 1.2 2.7 2.7z" fill="#fff"/><path d="m157.2 195.6c0 .5-.4.8-.8.8s-.8-.4-.8-.8.4-.8.8-.8.8.3.8.8z" fill="#fff"/><path d="m143.8 207.5c0 .4-.3.7-.7.7s-.7-.3-.7-.7.3-.7.7-.7.7.3.7.7z" fill="#fff"/><path d="m110 273.7c0 2.8-2.3 5-5 5-2.8 0-5-2.3-5-5s2.3-5 5-5c2.8 0 5 2.2 5 5z" fill="#fff"/><path d="m103.3 303.9c0 1.9 1.5 3.4 3.4 3.4s3.4-1.5 3.4-3.4-1.5-3.4-3.4-3.4-3.4 1.5-3.4 3.4z" fill="#fff"/><circle cx="121.7" cy="337.2" fill="#fff" r="1"/><path d="m141.6 371.6c0 .7.5 1.2 1.2 1.2s1.2-.5 1.2-1.2-.5-1.2-1.2-1.2-1.2.5-1.2 1.2z" fill="#fff"/><circle cx="288.9" cy="393.6" fill="#fff" r="3.4"/><path d="m310.6 378.8c0 1.3 1 2.3 2.3 2.3s2.3-1 2.3-2.3-1-2.3-2.3-2.3c-1.3-.1-2.3 1-2.3 2.3z" fill="#fff"/><path d="m263.5 203.9-41.8-9c-5.7-1.2-9.4-6.9-8.1-12.6 1.2-5.7 6.9-9.4 12.6-8.1l41.8 9c5.7 1.2 9.4 6.9 8.1 12.6-1.2 5.7-6.8 9.3-12.6 8.1z" fill="#302751"/><path d="m290 231.6-30.3-30.3c-4.1-4.1-4.1-10.9 0-15 4.1-4.1 10.9-4.1 15 0l30.3 30.3c4.1 4.1 4.1 10.9 0 15-4.2 4.2-10.9 4.2-15 0z" fill="#302751"/><path d="m222.9 103.4 46.9.8c4.7.1 8.5 4 8.4 8.7-.1 4.7-4 8.5-8.7 8.4l-46.9-.8c-4.7-.1-8.5-4-8.4-8.7.1-4.7 4-8.5 8.7-8.4z" fill="#3832ad"/><path d="m246.4 103.8 55.5.9c4.7.1 8.5 4 8.4 8.7-.1 4.7-4 8.5-8.7 8.4l-55.5-.9z" fill="#b7775c"/><path d="m224.9 193.8c-11.7.8-21.8-8.1-22.6-19.7l-3.5-51.5c-.8-11.7 8.1-21.8 19.7-22.6 11.7-.8 21.8 8.1 22.6 19.7l3.5 51.5c.8 11.6-8.1 21.8-19.7 22.6z" fill="#4b3cd3"/><path d="m201.8 168 .4 6c.8 11.7 11 20.5 22.6 19.7 11.7-.8 20.5-11 19.7-22.6l-.4-6z" fill="#473b7f"/><path d="m267.2 190.6-42.6 4.3c-5.8.6-11-3.7-11.6-9.5-.6-5.8 3.7-11 9.5-11.6l42.6-4.3c5.8-.6 11 3.7 11.6 9.5.6 5.8-3.7 11-9.5 11.6z" fill="#473b7f"/><path d="m281.6 221.4-24-35.4c-3.3-4.8-2-11.5 2.8-14.7 4.8-3.3 11.5-2 14.7 2.8l24 35.4c3.3 4.8 2 11.5-2.8 14.7-4.8 3.3-11.5 2-14.7-2.8z" fill="#473b7f"/><path d="m202.9 75.3h-1.1c-1.8 0-3.2-1.5-3.2-3.2 0-1.8 1.5-3.2 3.2-3.2h1.1c1.8 0 3.2 1.5 3.2 3.2 0 1.7-1.4 3.2-3.2 3.2z" fill="#b7775c"/><path d="m202.6 73.7h-.6c-.9 0-1.7-.7-1.7-1.7 0-.9.7-1.7 1.7-1.7h.6c.9 0 1.7.7 1.7 1.7 0 1-.7 1.7-1.7 1.7z" opacity=".12"/><path d="m238 75.3h-1.1c-1.8 0-3.2-1.5-3.2-3.2 0-1.8 1.5-3.2 3.2-3.2h1.1c1.8 0 3.2 1.5 3.2 3.2 0 1.7-1.4 3.2-3.2 3.2z" fill="#b7775c"/><path d="m237.7 73.7h-.6c-.9 0-1.7-.7-1.7-1.7 0-.9.7-1.7 1.7-1.7h.6c.9 0 1.7.7 1.7 1.7 0 1-.8 1.7-1.7 1.7z" opacity=".12"/><path d="m230 106.8s-4.8 2.9-10.1 2.9c-5.5 0-10.1-2.9-10.1-2.9v-31.6h20.2z" fill="#b7775c"/><path d="m209.8 97.5c2.9 2 6.3 3.2 10.1 3.2 3.8 0 7.2-1.2 10.1-3.2v-17.6h-20.2z" opacity=".12"/><path d="m219.9 46.2c-9.7 0-17.6 7.9-17.6 17.6v2.8 14.3c0 9.7 7.8 17.5 17.5 17.5 9.7 0 17.5-7.8 17.5-17.5v-14.5-2.8c.1-9.6-7.7-17.4-17.4-17.4z" fill="#b7775c"/><path d="m227.2 75.2c-.9 0-1.6-.7-1.6-1.6v-3.2c0-.9.7-1.6 1.6-1.6.9 0 1.6.7 1.6 1.6v3.2c0 .9-.7 1.6-1.6 1.6z"/><path d="m212.4 75.2c-.9 0-1.6-.7-1.6-1.6v-3.2c0-.9.7-1.6 1.6-1.6.9 0 1.6.7 1.6 1.6v3.2c0 .9-.8 1.6-1.6 1.6z"/><path d="m214.9 66.2h-6c-.6 0-1-.5-1-1 0-.6.5-1 1-1h6c.6 0 1 .5 1 1 .1.5-.4 1-1 1z" fill="#89461f"/><path d="m230.2 66.2h-6c-.6 0-1-.5-1-1 0-.6.5-1 1-1h6c.6 0 1 .5 1 1 .1.5-.4 1-1 1z" fill="#89461f"/><path d="m214.9 65.8h-6c-.6 0-1-.5-1-1 0-.6.5-1 1-1h6c.6 0 1 .5 1 1 .1.6-.4 1-1 1z"/><path d="m230.2 65.8h-6c-.6 0-1-.5-1-1 0-.6.5-1 1-1h6c.6 0 1 .5 1 1 .1.6-.4 1-1 1z"/><path d="m212.3 64.8h-3.2c-.3 0-.5-.2-.5-.4 0-.2.2-.4.5-.4h3.2c.3 0 .5.2.5.4 0 .2-.2.4-.5.4z" fill="#282828"/><path d="m227.7 64.8h-3.2c-.3 0-.5-.2-.5-.4 0-.2.2-.4.5-.4h3.2c.3 0 .5.2.5.4 0 .2-.2.4-.5.4z" fill="#282828"/><circle cx="217.5" cy="81.5" fill="#2e1a13" r=".9"/><circle cx="222.2" cy="81.5" fill="#2e1a13" r=".9"/><path d="m219.9 94.4c5.2 0 9.4-4.6 9.4-10.2h-18.8c0 5.6 4.2 10.2 9.4 10.2z" fill="#56172d"/><path d="m213.9 90.3h11.8c1.6-1.5 2.6-3.7 2.6-6.1h-17c.1 2.4 1.1 4.5 2.6 6.1z" fill="#2b1a1b"/><path d="m219.6 89.3c-1.5 0-2.7 1.2-2.7 2.7v1.7.2c.9.3 1.9.5 2.9.5 3.5 0 6.5-2.1 8.1-5.1z" fill="#d12d5c"/><path d="m224 90.6h-4.7c-.2 0-.3-.2-.3-.3 0-.2.2-.3.3-.3h4.7c.2 0 .3.2.3.3.1.2-.1.3-.3.3z" fill="#f1f1f1" opacity=".33"/><path d="m228.4 85.9v-1.7h-17v1.7c0 .4.3.8.8.8h15.5c.3-.1.7-.4.7-.8z" fill="#fff"/><path d="m228.4 84.8v-.7h-17v.7c0 .2.3.3.8.3h15.5c.3 0 .7-.1.7-.3z" fill="#f1f1f1"/><path d="m239.2 75.2-.6.6c-.1.1-.3.1-.4 0l-.6-.6c-.1-.1-.1-.3 0-.4l.6-.6c.1-.1.3-.1.4 0l.6.6c.1.1.1.3 0 .4z" fill="#b2b2b2"/><path d="m202.1 75.2-.6.6c-.1.1-.3.1-.4 0l-.6-.6c-.1-.1-.1-.3 0-.4l.6-.6c.1-.1.3-.1.4 0l.6.6c.2.1.2.3 0 .4z" fill="#b2b2b2"/><path d="m204.9 62.7c0-2 1.6-3.7 3.7-3.7h22.7c2 0 3.7 1.6 3.7 3.7v7.6h2.5v-3.8-2.8c0-9.6-7.8-17.5-17.5-17.5-9.7 0-17.6 7.9-17.6 17.6v2.8 3.7h2.5z" opacity=".12"/><path clip-path="url(#g)" d="m215.9 121.7-14.6 44.6c-1.5 4.5-6.3 6.9-10.8 5.4-4.5-1.5-6.9-6.3-5.4-10.8l14.6-44.6c1.5-4.5 6.3-6.9 10.8-5.4 4.4 1.5 6.9 6.3 5.4 10.8z" fill="#3832ad"/><path d="m216.5 118.3-14.6 44.6c-1.5 4.5-6.3 6.9-10.8 5.4-4.5-1.5-6.9-6.3-5.4-10.8l14.6-44.6c1.5-4.5 6.3-6.9 10.8-5.4 4.4 1.5 6.9 6.3 5.4 10.8z" fill="#4b3cd3"/><path d="m209.2 140.6-17.3 52.7c-1.5 4.5-6.3 6.9-10.8 5.4-4.5-1.5-6.9-6.3-5.4-10.8l17.3-52.7z" fill="#b7775c"/></svg>