<svg enable-background="new 0 0 461.9 371.1" viewBox="0 0 461.9 371.1" xmlns="http://www.w3.org/2000/svg" xmlns:xlink="http://www.w3.org/1999/xlink"><linearGradient id="a" gradientTransform="matrix(-1 0 0 1 1596.4138 0)" gradientUnits="userSpaceOnUse" x1="1357.9634" x2="1357.9634" y1="316.2534" y2="71.2393"><stop offset="0" stop-color="#fff"/><stop offset="1" stop-color="#fff" stop-opacity="0"/></linearGradient><ellipse cx="230" cy="363.6" fill="#280c02" rx="211" ry="2.5"/><path d="m165.5 226h149.4v-70.7c0-34-27.5-61.5-61.5-61.5h-26.4c-34 0-61.5 27.5-61.5 61.5z" fill="#1d3b50"/><path d="m237.3 262.6c-19.6 0-35.6-16-35.6-35.6v-86.5c0-19.6 16-35.6 35.6-35.6s35.6 16 35.6 35.6v86.5c.1 19.6-16 35.6-35.6 35.6z" fill="#4f39d7"/><path d="m201.7 216.8v10.2c0 19.6 16 35.6 35.6 35.6s35.6-16 35.6-35.6v-10.2z" fill="#4a3881"/><g fill="#ca785a"><path d="m292.7 210.9-50.1 7c-7.8 1.1-15.1-4.4-16.1-12.2-1.1-7.8 4.4-15.1 12.2-16.1l50.1-7c7.8-1.1 15.1 4.4 16.1 12.2 1.1 7.8-4.4 15-12.2 16.1z"/><path d="m123.3 53.9 21.9 45.6c3.4 7.1.4 15.7-6.7 19.1s-15.7.4-19.1-6.7l-21.9-45.6c-3.4-7.1-.4-15.7 6.7-19.1s15.6-.4 19.1 6.7z"/><path d="m135.5 91.7c-7.6-1.4-15 3.6-16.5 11.3-1.5 7.8 3.5 15.3 11.3 16.8l38.6 7.6 5.5-28.1z"/></g><path d="m163.2 97.2-5.5 28.1 49.8 9.8c7.7 1.5 15.3-3.5 16.8-11.3 1.5-7.7-3.5-15.3-11.3-16.8z" fill="#4f39d7"/><path d="m278.3 202.8c3.4 7 11.8 9.9 18.9 6.6 7.2-3.4 10.2-11.9 6.9-19l-16.7-35.6-25.9 12.2z" fill="#ca785a"/><path d="m266.3 177.2 25.9-12.2-21.6-45.9c-3.3-7.1-11.9-10.2-19-6.9s-10.2 11.9-6.9 19z" fill="#4f39d7"/><path d="m207.9 61.8h-1.8c-3 0-5.4-2.4-5.4-5.4s2.4-5.4 5.4-5.4h1.8c3 0 5.4 2.4 5.4 5.4.1 2.9-2.4 5.4-5.4 5.4z" fill="#ca785a"/><path d="m207.5 59.1h-.9c-1.5 0-2.8-1.3-2.8-2.8s1.3-2.8 2.8-2.8h.9c1.5 0 2.8 1.3 2.8 2.8 0 1.6-1.3 2.8-2.8 2.8z" opacity=".12"/><path d="m266.8 61.8h-1.8c-3 0-5.4-2.4-5.4-5.4s2.4-5.4 5.4-5.4h1.8c3 0 5.4 2.4 5.4 5.4 0 2.9-2.4 5.4-5.4 5.4z" fill="#ca785a"/><path d="m266.3 59.1h-.9c-1.5 0-2.8-1.3-2.8-2.8s1.3-2.8 2.8-2.8h.9c1.5 0 2.8 1.3 2.8 2.8 0 1.6-1.2 2.8-2.8 2.8z" opacity=".12"/><path d="m253.3 114.6s-8 4.9-16.9 4.9c-9.2 0-16.9-4.9-16.9-4.9v-53h33.8z" fill="#ca785a"/><path d="m219.5 99c4.8 3.4 10.6 5.4 16.9 5.4s12.1-2 16.9-5.4v-29.6h-33.8z" opacity=".12"/><path d="m236.5 13c-16.3 0-29.5 13.1-29.5 29.4v4.6 24c0 16.2 13.1 29.4 29.4 29.4 16.2 0 29.4-13.1 29.4-29.4v-24.1-4.6c-.1-16.2-13.2-29.3-29.3-29.3z" fill="#ca785a"/><path d="m248.7 61.7c-1.5 0-2.7-1.2-2.7-2.7v-5.4c0-1.5 1.2-2.7 2.7-2.7s2.7 1.2 2.7 2.7v5.4c0 1.5-1.2 2.7-2.7 2.7z"/><path d="m223.8 61.7c-1.5 0-2.7-1.2-2.7-2.7v-5.4c0-1.5 1.2-2.7 2.7-2.7s2.7 1.2 2.7 2.7v5.4c0 1.5-1.2 2.7-2.7 2.7z"/><path d="m228.1 46.5h-10.1c-1 0-1.8-.8-1.8-1.8s.8-1.8 1.8-1.8h10.1c1 0 1.8.8 1.8 1.8-.1 1-.9 1.8-1.8 1.8z" fill="#9b4415"/><path d="m253.7 46.5h-10.1c-1 0-1.8-.8-1.8-1.8s.8-1.8 1.8-1.8h10.1c1 0 1.8.8 1.8 1.8s-.8 1.8-1.8 1.8z" fill="#9b4415"/><path d="m228.1 45.9h-10.1c-1 0-1.8-.8-1.8-1.8s.8-1.8 1.8-1.8h10.1c1 0 1.8.8 1.8 1.8-.1 1-.9 1.8-1.8 1.8z"/><path d="m253.7 45.9h-10.1c-1 0-1.8-.8-1.8-1.8s.8-1.8 1.8-1.8h10.1c1 0 1.8.8 1.8 1.8s-.8 1.8-1.8 1.8z"/><path d="m223.7 44.2h-5.4c-.5 0-.8-.3-.8-.6s.4-.6.8-.6h5.4c.5 0 .8.3.8.6.1.3-.3.6-.8.6z" fill="#232323"/><path d="m249.5 44.2h-5.4c-.5 0-.8-.3-.8-.6s.4-.6.8-.6h5.4c.5 0 .8.3.8.6.1.3-.3.6-.8.6z" fill="#232323"/><circle cx="232.4" cy="72.1" fill="#30130a" r="1.4"/><circle cx="240.3" cy="72.1" fill="#30130a" r="1.4"/><path d="m236.4 93.8c8.7 0 15.7-7.7 15.7-17.2h-31.5c.1 9.5 7.1 17.2 15.8 17.2z" fill="#63102a"/><path d="m226.5 86.9h19.9c2.7-2.6 4.3-6.2 4.3-10.2h-28.5c-.1 4 1.6 7.6 4.3 10.2z" fill="#2c1314"/><path d="m236 85.2c-2.4 0-4.5 2-4.5 4.5v2.9.4c1.5.5 3.2.8 4.9.8 5.8 0 10.9-3.5 13.6-8.6z" fill="#f2295d"/><path d="m243.4 87.5h-7.8c-.3 0-.6-.3-.6-.6s.3-.6.6-.6h7.8c.3 0 .6.3.6.6s-.3.6-.6.6z" fill="#f0f0f0" opacity=".33"/><path d="m250.7 79.5v-2.9h-28.5v2.9c0 .7.6 1.3 1.3 1.3h26c.6 0 1.2-.6 1.2-1.3z" fill="#fff"/><g fill="#f0f0f0"><path d="m250.7 77.8v-1.1h-28.5v1.1c0 .3.6.5 1.3.5h26c.6 0 1.2-.3 1.2-.5z"/><path d="m268.8 61.7-1 1c-.2.2-.5.2-.8 0l-1-1c-.2-.2-.2-.5 0-.8l1-1c.2-.2.5-.2.8 0l1 1c.2.2.2.6 0 .8z"/><path d="m206.7 61.7-1 1c-.2.2-.5.2-.8 0l-1-1c-.2-.2-.2-.5 0-.8l1-1c.2-.2.5-.2.8 0l1 1c.2.2.2.6 0 .8z"/></g><path d="m211.2 40.6c0-3.4 2.8-6.1 6.1-6.1h38.1c3.4 0 6.1 2.8 6.1 6.1v12.7h4.2v-6.4-4.6c0-16.2-13.1-29.3-29.3-29.3s-29.4 13.1-29.4 29.4v4.6 6.3h4.2z" opacity=".12"/><path d="m19.5 240.6h421c6.6 0 12-5.4 12-12v-2.6h-445.1v2.6c0 6.6 5.5 12 12.1 12z" fill="#7e3f3e"/><ellipse cx="229" cy="231.1" fill="#5c242e" rx="208.4" ry="3.9"/><path d="m43.1 240.6h373.7v122h-373.7z" fill="#5c242e" transform="matrix(-1 0 0 -1 459.9493 603.1385)"/><path d="m43.1 240.6h373.8v14.2h-373.8z" fill="#420e1f" transform="matrix(-1 0 0 -1 459.999 495.3766)"/><path d="m35.2 205.3h37.7v5.4h-37.7z" fill="#fff" transform="matrix(-1 0 0 -1 107.993 416.041)"/><path d="m34.7 226.5c3.8 4.6 14.7 4.6 18.2 4.5h1.1s14.8 1 19.3-4.5c2.6-3.1 1.1-7.8-.6-11.2-.4-.8-.8-1.6-1.2-2.2-.9-1.4-1.6-2.3-1.6-2.3h-31.8s-1.5 1.9-2.8 4.6c-1.8 3.3-3.2 8-.6 11.1z" fill="#fff"/><path d="m66.2 222.3c1.6 5-4.4 8.9-12.2 8.7 0 0 14.8 1 19.3-4.5 2.6-3.1 1.1-7.8-.6-11.2 0-.1-.1-.2-.1-.2 0-.1-.1-.2-.1-.2-.3-.6-.7-1.2-1-1.7-.9-1.4-1.6-2.3-1.6-2.3h-31.8s-1.5 1.9-2.8 4.6h14.2c3.6 0 7.1.6 10.4 2 2.8.9 5.6 2.5 6.3 4.8z" fill="#cecece"/><path d="m40.7 200.5c.4.7.9 1.3 1.3 1.8 1.3 1.8 2.3 2.9 2.4 3h19.1c.1-.1 1.1-1.3 2.4-3 .4-.6.8-1.2 1.3-1.8 2.3-3.5 4.8-8.2 4.1-11.8-.2-1.1-.5-1.9-.9-2.4-.2-.3-.4-.5-.7-.6-2.1-1.2-5.2 1.6-6.2 1.5-1.4-.1.8-6.9 4-11.7 2.9-4.5 4.8-10.5 1.3-12.6-.1-.1-.3-.1-.4-.2s-.3-.1-.4-.2c-4.7-1.7-6.3 4.5-8.2 3.7s4-20.8-5.3-20.9c-.1 0-.3 0-.5 0s-.3 0-.5 0c-9.3 0-3.4 20-5.3 20.9-2 .9-3.6-5.4-8.2-3.7-.1.1-.3.1-.4.2s-.3.1-.4.2c-3.6 2.2-1.7 8.1 1.2 12.6 3.1 4.8 5.3 11.5 4 11.7-1 .1-4.2-2.7-6.2-1.5-.2.1-.5.3-.7.6-.4.5-.7 1.3-.9 2.4-.7 3.5 1.8 8.3 4.1 11.8z" fill="#00cdc2"/><g fill="#00807a"><path d="m53.5 145.3v60h.9v-60c-.1 0-.3 0-.5 0-.1 0-.2 0-.4 0z"/><path d="m53.7 179.7.3.3.3.3.1-.1 14.7-17-.4-.3c-.1-.1-.3-.1-.4-.2l-13.9 16.1-.5.5z"/><path d="m53.7 204.3.3.3.3.3.1-.1 16-18.5c-.2-.3-.4-.5-.7-.6l-15.4 17.7-.5.5z"/><path d="m38.2 164.1 14.7 17 .1.1.3-.3.3-.3-.3-.4-.5-.5-13.8-16.1c-.1.1-.3.1-.4.2z"/><path d="m37.5 186.2 16 18.5.1.1.3-.3.3-.3-.3-.4-.5-.5-15.3-17.7c-.1.2-.4.4-.6.6z"/></g><path d="m42 202.3c1.3 1.8 2.3 2.9 2.4 3h19.1c.1-.1 1.1-1.3 2.4-3z" opacity=".15"/><path d="m86.3 187.6v14.3h64.7c2 0 3.7-1.6 3.7-3.7v-6.9c0-2-1.6-3.7-3.7-3.7z" fill="#e40046"/><path d="m86.3 189.4v10.6h58.7c1.9 0 3.4-1.5 3.4-3.4v-3.8c0-1.9-1.5-3.4-3.4-3.4z" fill="#fff"/><path d="m86.3 191.5h56.1v.9h-56.1z" fill="#b0b0b0"/><path d="m86.3 194.2h56.1v.9h-56.1z" fill="#b0b0b0"/><path d="m86.3 196.9h56.1v.9h-56.1z" fill="#b0b0b0"/><path d="m86.3 201.8v14.3h64.7c2 0 3.7-1.6 3.7-3.7v-6.9c0-2-1.6-3.7-3.7-3.7z" fill="#00cdc2"/><path d="m86.3 203.6v10.7h58.7c1.9 0 3.4-1.5 3.4-3.4v-3.9c0-1.9-1.5-3.4-3.4-3.4z" fill="#fff"/><path d="m86.3 205.8h56.1v.9h-56.1z" fill="#b0b0b0"/><path d="m86.3 208.5h56.1v.9h-56.1z" fill="#b0b0b0"/><path d="m86.3 211.2h56.1v.9h-56.1z" fill="#b0b0b0"/><path d="m86.3 216.1v14.3h64.7c2 0 3.7-1.6 3.7-3.7v-6.9c0-2-1.6-3.7-3.7-3.7z" fill="#e40046"/><path d="m86.3 217.9v10.7h58.7c1.9 0 3.4-1.5 3.4-3.4v-3.8c0-1.9-1.5-3.4-3.4-3.4h-58.7z" fill="#fff"/><path d="m86.3 220.1h56.1v.9h-56.1z" fill="#b0b0b0"/><path d="m86.3 222.8h56.1v.9h-56.1z" fill="#b0b0b0"/><path d="m86.3 225.5h56.1v.9h-56.1z" fill="#b0b0b0"/><path d="m331.5 180.8h6.2v47.1h-6.2z" fill="#00cdc2" transform="matrix(.9988 -.0498136 .0498136 .9988 -9.7645 16.9219)"/><path d="m336.6 180.7-6.3.3 1.9-4.6.9-2.3 1.2 2.2z" fill="#e7ac84"/><path d="m332.6 224.5h6.2v3.4h-6.2z" fill="#133248" transform="matrix(.9988 -.0498136 .0498136 .9988 -10.8495 17.0032)"/><path d="m337 230.5-2.1.1c-1.1.1-2.1-.8-2.2-2v-.7l6.2-.3v.7c.1 1.2-.8 2.2-1.9 2.2z" fill="#e93543"/><path d="m334.3 176.3-2.1.1.9-2.3z" fill="#1d3b50"/><path d="m332.4 222h6.2v2.5h-6.2z" fill="#008c85" transform="matrix(.9988 -.04978756 .04978756 .9988 -10.6982 16.9832)"/><path d="m332 183.2 1.7 34.8c0 .3.2.5.5.5s.5-.2.5-.5l-1.7-34.8c0-.3-.2-.5-.5-.5-.3.1-.5.3-.5.5z" fill="#008c85"/><path d="m334.4 183.1 1.7 34.8c0 .3.2.5.5.5s.5-.2.5-.5l-1.7-34.8c0-.3-.2-.5-.5-.5s-.5.3-.5.5z" fill="#008c85"/><path d="m351.9 181.9h6.2v47.1h-6.2z" fill="#e40046" transform="matrix(.9964 .08429383 -.08429383 .9964 18.5813 -29.1972)"/><path d="m360.1 182.2-6.2-.5 2.4-4.2 1.3-2.3.9 2.4z" fill="#e7ac84"/><path d="m350.1 225.5h6.2v3.4h-6.2z" fill="#133248" transform="matrix(.9964 .08429383 -.08429383 .9964 20.4087 -28.9645)"/><path d="m353.9 231.7-2.1-.2c-1.1-.1-2-1.1-1.9-2.2l.1-.7 6.2.5-.1.7c-.1 1.2-1.1 2-2.2 1.9z" fill="#e93543"/><path d="m358.5 177.6-2.2-.1 1.3-2.3z" fill="#1d3b50"/><path d="m352.2 221.2h2.5v6.2h-2.5z" fill="#af0034" transform="matrix(.08429615 -.9964 .9964 .08429615 100.1839 557.5651)"/><path d="m355.3 184.2-2.9 34.7c0 .3.2.5.4.5.3 0 .5-.2.5-.4l2.9-34.7c0-.3-.2-.5-.4-.5-.3-.1-.5.1-.5.4z" fill="#af0034"/><path d="m357.7 184.4-2.9 34.7c0 .3.2.5.4.5.3 0 .5-.2.5-.4l2.9-34.7c0-.3-.2-.5-.4-.5-.2-.1-.5.1-.5.4z" fill="#af0034"/><path d="m338.4 180.1h6.2v47.1h-6.2z" fill="#e40046" transform="matrix(1 -.00323247 .00323247 1 -.6563 1.1051)"/><path d="m344.6 180-6.3.1 2.1-4.5 1.1-2.3 1 2.3z" fill="#e7ac84"/><path d="m338.5 223.7h6.2v3.4h-6.2z" fill="#133248" transform="matrix(1 -.00323247 .00323247 1 -.7269 1.1055)"/><path d="m342.7 229.9h-2.1c-1.1 0-2.1-.9-2.1-2.1v-.7h6.2v.7c.1 1.1-.9 2.1-2 2.1z" fill="#e93543"/><path d="m342.5 175.6h-2.1l1.1-2.3z" fill="#1d3b50"/><path d="m338.5 221.3h6.2v2.5h-6.2z" fill="#af0034" transform="matrix(1 -.0032602 .0032602 1 -.7236 1.1149)"/><path d="m339.9 182.4.1 34.9c0 .3.2.5.5.5s.5-.2.5-.5l-.1-34.9c0-.3-.2-.5-.5-.5s-.5.2-.5.5z" fill="#af0034"/><path d="m342.4 182.4.1 34.9c0 .3.2.5.5.5s.5-.2.5-.5l-.1-34.9c0-.3-.2-.5-.5-.5s-.5.2-.5.5z" fill="#af0034"/><path d="m345.4 179.7h6.2v47.1h-6.2z" fill="#00cdc2" transform="matrix(.998 .06324174 -.06324174 .998 13.5541 -21.6312)"/><path d="m353.1 180-6.3-.4 2.4-4.3 1.2-2.3.9 2.4z" fill="#e7ac84"/><path d="m344 223.4h6.2v3.4h-6.2z" fill="#133248" transform="matrix(.998 .06324174 -.06324174 .998 14.9295 -21.5003)"/><path d="m347.9 229.6-2.1-.1c-1.1-.1-2-1.1-1.9-2.2v-.7l6.2.4v.7c-.1 1.1-1.1 2-2.2 1.9z" fill="#e93543"/><path d="m351.3 175.4-2.1-.1 1.2-2.3z" fill="#1d3b50"/><path d="m346.1 219h2.5v6.2h-2.5z" fill="#008e87" transform="matrix(.063271 -.998 .998 .063271 103.6003 554.6805)"/><path d="m348.3 182-2.2 34.8c0 .3.2.5.4.5.3 0 .5-.2.5-.4l2.2-34.8c0-.3-.2-.5-.4-.5-.3-.1-.5.1-.5.4z" fill="#008e87"/><path d="m350.7 182.2-2.2 34.8c0 .3.2.5.4.5.3 0 .5-.2.5-.4l2.2-34.8c0-.3-.2-.5-.4-.5-.3-.1-.5.1-.5.4z" fill="#008e87"/><path d="m361.5 196.4-.3 2.5-.3 2.3-.2 1.6-.2 1.9-.3 2.3-.2 1.4-.3 2.1-.3 2.2-.5 3.5-.3 2.2-.5 3.6-.3 2.2-.5 3.6-.3 2.2-.2 1.9c-8.1 1.3-16.3 1.3-24.5 0l-.2-1.9-.3-2.2-.5-3.6-.3-2.2-.5-3.6-.3-2.2-.5-3.5-.3-2.2-.3-2.1-.2-1.4-.3-2.3-.2-1.9-.2-1.6-.3-2.3-.3-2.5z" fill="#fff"/><path d="m362.3 202.8h-35.8c-1.5 0-2.6-1.2-2.6-2.6v-1.2c0-1.5 1.2-2.6 2.6-2.6h35.8c1.5 0 2.6 1.2 2.6 2.6v1.1c0 1.5-1.2 2.7-2.6 2.7z" fill="#fff"/><path d="m360.6 202.8-.2 1.9-.3 2.2-.2 1.5h-30.6l-.2-1.5-.2-2.2-.3-1.9z" fill="#cecece"/><path d="m370.6 97.5c1.1 1.7 3.5 2.2 5.2 1.1l5.8-3.7 6.5-4.2 27.4 22.4-17.5 95.5-1.1 5.9-1.3 6.9c-.4 2 1 4 3 4.4.2 0 .5.1.7.1 1.8 0 3.4-1.3 3.7-3.1l1.5-8.3 1.1-5.9 17.7-96.4c.2-1.3-.3-2.7-1.3-3.6l-31.3-25.5c-1.3-1-3.1-1.1-4.4-.2l-9.9 6.4-4.7 3c-1.7 1.1-2.2 3.4-1.1 5.2z" fill="#fff"/><path d="m370.6 97.5c1.1 1.7 3.5 2.2 5.2 1.1l5.8-3.7c-.5-2.9-3.4-4.7-5.2-5.6l-4.7 3c-1.7 1.1-2.2 3.4-1.1 5.2z" fill="#cecece"/><path d="m341 109.2c-.8.5-1.6 1.1-2.4 1.7-.8.8-1.5 1.7-2.1 2.6-2.9 4.7-2.4 10.9 1.5 15.1s10.1 5.1 15 2.5c1-.5 1.9-1.1 2.7-1.9l.7-.7c4.4-4.8 4.4-12.2-.1-17-4.1-4.2-10.4-5.1-15.3-2.3z" fill="#fff"/><path d="m341 109.2c-.8.5-1.6 1.1-2.4 1.7-.8.8-1.5 1.7-2.1 2.6l16.5 17.6c1-.5 1.9-1.1 2.7-1.9l.7-.7c-3.7-6-10.3-16.1-15.4-19.3z" fill="#cecece"/><g fill="#e40046"><path d="m375.6 93.5c-2.8-3-6.6-4-8.6-2.2-1.9 1.8-1.2 5.7 1.6 8.7s6.6 4 8.6 2.2c1.9-1.7 1.2-5.6-1.6-8.7z"/><path d="m375.6 93.5c-2.8-3-6.6-4-8.6-2.2-1.9 1.8-1.2 5.7 1.6 8.7s6.6 4 8.6 2.2c1.9-1.7 1.2-5.6-1.6-8.7z"/><path d="m328.8 93.7c-1.9 1.8-2 4.8-.2 6.8l34.8 37.3s0 0 .1.1l.2.2 1.8 1.9c1.8 1.9 4.8 2 6.8.2 9.2-8.6 11.7-21.6 7.3-32.6-1.3-3.3-3.3-6.5-5.9-9.2l-3-3.2c-1.8-1.9-3.8-3.6-5.9-4.9 0 0-.1 0-.2-.1-11.1-6.9-25.8-5.8-35.8 3.5z"/><path d="m328.8 93.7c-1.9 1.8-2 4.8-.2 6.8l34.8 37.3c-.9-1.2-23.6-31.2-17-42.7 6.3-11 16.8-5.7 18.2-4.9-11.1-6.9-25.8-5.8-35.8 3.5z"/></g><path d="m328.8 93.7c-1.9 1.8-2 4.8-.2 6.8l34.8 37.3c-.9-1.2-23.6-31.2-17-42.7 6.3-11 16.8-5.7 18.2-4.9-11.1-6.9-25.8-5.8-35.8 3.5z" fill="#af0034"/><path d="m376.1 222.8v8.3h48.4v-8.3c0-4.6-3.7-8.3-8.3-8.3h-31.8c-4.6 0-8.3 3.7-8.3 8.3z" fill="#e40046"/><path d="m376.1 223.9h48.4v7.1h-48.4z" fill="#af0034"/><path d="m396.9 214.5h7.7l1-5.9h-7.6z" fill="#cecece"/><path d="m299.4 96.8c7.5.8 8.2 1.5 9.1 9.1.9-7.5 1.5-8.2 9.1-9.1-7.5-.8-8.2-1.5-9.1-9.1-.9 7.5-1.5 8.2-9.1 9.1z" fill="#fff"/><path d="m157.9 54.5c7.5.8 8.2 1.5 9.1 9.1.9-7.5 1.5-8.2 9.1-9.1-7.5-.9-8.2-1.5-9.1-9.1-.9 7.6-1.6 8.3-9.1 9.1z" fill="#fff"/><path d="m275.4 14.5c7.5.8 8.2 1.5 9.1 9.1.9-7.5 1.5-8.2 9.1-9.1-7.5-.8-8.2-1.5-9.1-9.1-.9 7.6-1.6 8.3-9.1 9.1z" fill="#fff"/><path d="m313 131.2 29.8-88.2h-208.7l29.8 88.2z" fill="url(#a)"/><path d="m164 132.3.3 2.2 7.8 66.1c.5 4 3.8 6.9 7.8 6.9h117.2c4 0 7.3-3 7.8-6.9l7.8-66.1.3-2.2c.6-4.7-3.1-8.8-7.8-8.8h-133.4c-4.7 0-8.4 4.1-7.8 8.8z" fill="#cecece"/><path d="m164.2 134.5 7.8 66.1c.5 4 3.8 6.9 7.8 6.9h117.2c4 0 7.3-3 7.8-6.9l7.8-66.1c-.9-3.2-3.9-5.6-7.5-5.6h-133.3c-3.6 0-6.6 2.4-7.6 5.6z" fill="#fff"/><path d="m289.7 191.5h12.2v11.5h-12.2z" opacity=".2" transform="matrix(.07359438 -.9973 .9973 .07359438 77.3259 477.7095)"/><path d="m290.8 191.2h11.5v11.5h-11.5z" fill="#00cdc2" transform="matrix(.07359929 -.9973 .9973 .07359929 78.3416 478.1557)"/><path d="m296.1 188.4h1.9v3.9h-1.9z" fill="#fff" transform="matrix(-.9973 -.07362732 .07362732 -.9973 579.2357 402.0244)"/><path d="m276.7 187.6h11.5v12.2h-11.5z" opacity=".2" transform="matrix(.9724 -.2332 .2332 .9724 -37.3729 71.1881)"/><path d="m277.3 187.4h11.5v11.5h-11.5z" fill="#e40046" transform="matrix(.9724 -.2332 .2332 .9724 -37.2316 71.3188)"/><path d="m280.5 184.8h1.9v3.9h-1.9z" fill="#fff" transform="matrix(-.9724 .2331 -.2331 -.9724 598.7623 302.6818)"/><path d="m216.2 207.5h44.2v16.7h-44.2z" fill="#cecece"/><path d="m216.2 207.5h44.2v8.3h-44.2z" fill="#b0b0b0"/><path d="m192.1 231.1h92.3v-1.2c0-3.1-2.5-5.7-5.7-5.7h-80.9c-3.1 0-5.7 2.5-5.7 5.7z" fill="#fff"/><path d="m248.8 162c-2.4-2.4-6.4-2.4-8.8 0l-3.9 3.9c-.3.3-.3.8 0 1.1l3.9 3.9 3.9 3.9c.3.3.8.3 1.1 0l3.9-3.9c2.3-2.5 2.3-6.5-.1-8.9z" fill="#00cdc2"/><path d="m239.4 162.5-3.3 3.3c-.3.3-.8.3-1.1 0l-3.3-3.3c-.3-.3-.8-.3-1.1 0l-3.3 3.3c-.3.3-.3.8 0 1.1l3.9 3.9 3.9 3.9c.3.3.8.3 1.1 0l3.9-3.9 3.9-3.9c.3-.3.3-.8 0-1.1l-3.3-3.3c-.5-.3-1-.3-1.3 0z" fill="#e40046"/></svg>