<?xml version="1.0" standalone="no"?>
<!DOCTYPE svg PUBLIC "-//W3C//DTD SVG 20010904//EN"
 "http://www.w3.org/TR/2001/REC-SVG-20010904/DTD/svg10.dtd">
<svg version="1.0" xmlns="http://www.w3.org/2000/svg"
 width="1200.000000pt" height="1200.000000pt" viewBox="0 0 1200.000000 1200.000000"
 preserveAspectRatio="xMidYMid meet">
<metadata>
Created by potrace 1.11, written by Peter Selinger 2001-2013
</metadata>
<g transform="translate(0.000000,1200.000000) scale(0.100000,-0.100000)"
fill="#000000" stroke="none">
<path d="M7988 8825 c-2 -2 -37 -6 -78 -9 -168 -15 -273 -36 -500 -101 -202
-58 -497 -209 -694 -354 -153 -113 -175 -134 -1150 -1108 l-663 -661 -64 -20
c-37 -12 -86 -19 -114 -18 -114 6 -104 -3 -830 723 -525 524 -681 674 -720
694 -41 20 -65 24 -135 24 -74 0 -92 -4 -136 -28 -36 -21 -239 -217 -721 -700
-643 -644 -672 -674 -693 -732 -27 -75 -24 -167 10 -237 17 -37 349 -374 1538
-1563 834 -834 1534 -1527 1556 -1540 88 -51 197 -51 296 0 19 10 376 359 792
775 l758 758 759 -759 c846 -846 807 -812 941 -812 134 -1 90 -40 989 860 443
445 837 846 874 893 314 391 490 836 533 1345 6 72 6 310 0 345 -3 14 -7 60
-11 103 -4 43 -9 90 -11 105 -12 68 -57 257 -69 292 -8 22 -12 40 -10 40 2 0
-4 20 -15 45 -11 25 -20 47 -20 50 0 3 -3 13 -7 22 -110 309 -302 610 -543
854 -96 97 -259 236 -336 287 -109 72 -156 100 -264 159 -170 93 -486 201
-665 228 -22 4 -58 10 -80 15 -22 4 -47 8 -55 8 -8 0 -37 3 -65 7 -47 6 -392
15 -397 10z"/>
</g>
</svg>
