<?xml version="1.0" standalone="no"?>
<!DOCTYPE svg PUBLIC "-//W3C//DTD SVG 20010904//EN"
 "http://www.w3.org/TR/2001/REC-SVG-20010904/DTD/svg10.dtd">
<svg version="1.0" xmlns="http://www.w3.org/2000/svg"
 width="1205.000000pt" height="1205.000000pt" viewBox="0 0 1205.000000 1205.000000"
 preserveAspectRatio="xMidYMid meet">
<metadata>
Created by potrace 1.11, written by Peter Selinger 2001-2013
</metadata>
<g transform="translate(0.000000,1205.000000) scale(0.100000,-0.100000)"
fill="#000000" stroke="none">
<path d="M8617 9644 c-1 -1 -53 -5 -116 -8 -63 -4 -117 -9 -120 -11 -3 -2 -28
-6 -56 -9 -53 -6 -96 -13 -131 -21 -22 -5 -89 -17 -114 -20 -16 -2 -94 -23
-120 -33 -8 -3 -19 -6 -25 -6 -78 -11 -345 -111 -512 -192 -62 -30 -117 -54
-122 -54 -6 0 -11 -4 -11 -8 0 -8 -51 -36 -59 -32 -2 1 -7 -2 -10 -7 -3 -5
-26 -20 -51 -34 -25 -13 -47 -26 -50 -29 -3 -3 -38 -27 -79 -54 -41 -27 -79
-52 -85 -57 -6 -5 -58 -46 -116 -91 -137 -108 -229 -198 -1285 -1250 -489
-488 -902 -896 -917 -907 -14 -12 -31 -21 -36 -21 -6 0 -12 -5 -14 -11 -6 -18
-142 -47 -197 -43 -58 4 -132 28 -181 57 -19 12 -417 403 -884 869 -976 975
-903 913 -1081 913 -173 0 -98 64 -1073 -909 -498 -497 -863 -869 -876 -893
-31 -54 -58 -140 -57 -178 2 -79 25 -167 58 -219 15 -23 895 -909 1958 -1971
1903 -1902 1949 -1947 2040 -1981 50 -18 122 -23 185 -12 51 9 170 64 170 79
0 5 4 9 8 9 10 0 322 312 322 321 0 4 5 9 10 11 15 5 1110 1101 1110 1110 0 4
4 8 8 8 10 0 255 245 260 260 2 6 8 10 12 10 11 0 110 102 110 112 0 5 4 8 10
8 5 0 25 17 44 37 l35 38 962 -960 c528 -528 969 -967 978 -975 20 -18 106
-58 141 -66 14 -3 48 -6 75 -7 45 -1 65 2 130 16 72 17 138 79 1120 1062 556
556 1028 1031 1050 1055 56 62 111 131 172 214 28 39 60 82 70 96 35 45 134
211 183 305 26 51 51 99 56 106 5 8 9 19 10 24 1 6 13 35 27 65 37 77 121 305
131 355 2 6 9 30 16 55 7 25 14 52 15 60 1 8 7 33 13 55 6 22 14 54 16 70 3
17 8 41 11 55 5 22 10 53 19 115 2 11 6 40 10 65 4 25 8 65 10 90 1 25 5 50 8
55 5 9 4 510 -1 510 -1 0 -4 20 -6 45 -4 43 -11 97 -20 151 -2 13 -6 42 -10
64 -3 22 -7 47 -10 55 -2 8 -7 31 -9 50 -3 19 -19 85 -36 145 -16 61 -32 119
-35 130 -10 44 -70 206 -112 303 -44 104 -142 303 -154 312 -3 3 -14 21 -24
40 -10 19 -26 46 -35 60 -84 126 -127 190 -147 215 -13 17 -27 35 -31 40 -94
129 -308 351 -457 475 -50 41 -96 81 -103 88 -7 6 -17 12 -21 12 -4 0 -16 8
-27 18 -22 21 -214 152 -221 152 -3 0 -31 15 -62 34 -80 49 -232 126 -247 126
-7 0 -14 3 -16 8 -8 19 -348 144 -453 167 -11 2 -36 9 -55 15 -54 16 -280 61
-330 65 -25 3 -58 7 -75 9 -72 12 -181 19 -328 20 -87 1 -159 1 -160 0z"/>
</g>
</svg>
