<svg height="512pt" preserveAspectRatio="xMidYMid meet" viewBox="0 0 512 512" width="512pt" xmlns="http://www.w3.org/2000/svg"><g transform="matrix(.1 0 0 -.1 0 512)"><path d="m3713 3802-293-2v-833-832l408 1c224 1 412 2 417 3 8 1 11 51 6 89-1 4-165 7-365 6-327-1-365 1-368 15-2 9-3 162-3 341l1 325 363 1c199 1 365 4 368 7 5 6 7 41 4 90-1 12-5 15-13 10-18-11-128-11-128 0 0 5-5 5-12 0-16-13-48-13-48 0 0 6-5 6-12 0-16-13-48-13-48 0 0 6-5 6-12 0-16-13-48-13-48-1 0 5-6 6-12 1-17-10-108-11-108 0 0 4-6 5-12 0-18-10-148-10-148 1 0 5-6 4-12-1-7-5-35-8-63-8-43 2-50 5-55 26-4 18-5 634-1 659 1 3 165 5 366 5 359 0 365 0 366 20 1 11 2 32 3 48 3 26 1 27-48 27-28 1-85 2-126 3s-207 1-367-1z"/><path d="m869 3793c-3-21-4-1630-1-1643s50-15 363-15c197 0 359 2 360 5 5 21 4 81 0 87-3 5-145 8-316 8h-310v783 782h-47c-27 0-48-3-49-7z"/><path d="m1799 3793c-5-51 0-1643 5-1652 5-8 21-10 45-7 20 3 38 5 41 6 3 0 5 372 5 828v827l-47 3c-27 2-48-1-49-5z"/><path d="m2040 3790c0-6 11-37 24-70 13-32 21-61 18-64s0-6 7-6c6 0 11-6 10-12-1-7 1-22 5-33 5-11 19-49 32-85 12-36 39-110 60-165 20-55 37-104 39-110 1-5 5-17 8-25s24-67 47-130 44-122 47-130 7-20 8-25c3-10 69-193 82-225 4-8 7-17 8-20 6-22 18-58 25-75 32-78 50-130 50-146 0-9 3-19 8-21 8-4 68-178 65-190-2-4 2-8 7-8s9-3 8-7c-1-9 6-32 27-79 11-26 18-31 41-28 27 3 42 17 45 42 1 6 2 15 3 20 2 7 42 115 67 177 7 17 13 35 14 40 3 10 82 234 114 320 11 28 22 59 27 70 4 11 8 26 10 34 1 8 16 48 32 90 40 102 62 164 62 173 0 5 11 33 25 63 13 31 24 58 25 60 0 3 0 6 1 8 0 1 3 13 5 27 2 13 8 27 12 30s8 12 10 20 24 71 49 140c24 69 46 133 48 142s9 26 15 38c12 22 47 121 55 153 4 16-2 18-47 15l-52-3-33-95c-19-52-35-99-37-105-2-5-6-17-9-25s-18-51-33-95-32-91-37-105c-6-14-11-27-12-30-16-54-37-116-55-160-12-30-23-62-25-70s-18-53-35-100-33-89-34-95c-2-5-5-17-8-25-38-101-72-207-70-212 1-5-3-8-8-8s-9-3-9-7c1-5 0-11-1-15-1-5-3-11-5-15-1-5-4-15-7-23-103-302-101-297-114-265-7 17-12 33-13 38 0 4-8 21-16 37-9 17-14 34-11 39 3 4-1 17-9 27s-15 24-15 31c0 6-5 24-12 40-6 15-12 33-14 38-1 6-16 51-34 100-33 93-37 105-39 118 0 4-8 21-16 37s-16 33-16 37c-2 10-1 9-45 128-19 55-39 114-43 130-4 17-13 39-18 50-6 11-12 23-12 27-2 11-11 38-28 83-8 22-22 60-30 85-14 42-95 272-130 368-16 42-16 42-64 42-27 0-49-5-49-10z"/><path d="m869 2002c-3-21-4-109-1-118 2-7 248-10 815-10l812 1 1 67 2 67h-814c-448 0-814-3-815-7z"/><path d="m2624 1942 1-67 813-1c781-1 812 0 813 18 1 10 2 39 2 66l1 47-816 2-816 2z"/><path d="m1175 1752c-6-4-10-40-10-79 0-40-1-73-3-73-1 0-17 7-35 16-62 33-118 23-162-28-15-17-20-37-20-81 0-52 3-60 33-88 43-40 116-45 162-10 17 12 30 18 29 14-3-17 1-33 9-33 5 0 8 83 8 185v185c-1 0-6-4-11-8zm-55-157c66-34 58-149-12-178-21-9-43-11-60-6-16 4-28 5-28 3 0-3-12 6-26 19-18 17-26 36-29 70-3 41 0 49 28 76 35 35 79 41 127 16z"/><path d="m2856 1685c-9-9-14-20-11-25 8-13 43 0 41 16-3 23-13 26-30 9z"/><path d="m1677 1616c-115-78-49-249 89-229 16 3 41 13 54 23 20 15 23 21 13 31-8 8-13 9-13 3 0-16-46-34-85-34-45 0-88 37-91 78-2 26 2 31 27 34 16 3 29 2 29-1 0-7 138-3 157 4 10 3 10 10 1 32-16 34-26 46-58 63-40 22-87 20-123-4zm122-23c16-10 32-26 34-35 5-16-4-17-86-17-51 1-96 4-100 6-4 3 6 18 22 34 36 34 83 38 130 12z"/><path d="m3376 1617c-20-12-36-26-36-33s-5-14-12-16c-19-7-17-79 2-118 11-20 32-42 52-52 38-18 103-15 128 6 33 28 42 30 28 5-17-30-27-40-62-63-16-10-25-12-21-5 6 8 4 10-4 5-16-10-83 2-76 13 3 5-2 11-10 15-23 8-29-14-9-30 41-31 128-31 159 0 9 9 21 16 27 16s8 3 5 7c-4 3-2 12 4 19 9 11 15 152 9 219-1 18-2 18-12 4-11-16-14-15-39 4-38 27-88 29-133 4zm127-29c43-31 51-70 27-128-11-26-42-47-62-42-5 1-8-2-8-7 0-10-47-4-77 11-12 6-27 24-34 41-43 104 62 189 154 125z"/><path d="m2324 1622c-18-12-32-44-27-62 3-10 25-32 49-50 47-33 55-60 29-87-21-20-63-9-74 20-8 20-10 20-16 4-10-24 25-57 60-57 36 0 75 41 68 71-5 23-57 79-73 79-4 0-12 10-17 23-9 19-8 26 8 35 25 16 25 16 49-10 18-20 20-20 20-3 0 32-48 56-76 37z"/><path d="m4047 1619c-9-5-21-8-26-4-21 12-34-43-18-77 4-10 4-18 0-18-7 0-8-45-4-117 1-7 5-13 11-13 5 0 9 37 9 83 0 102 4 113 46 127 28 9 38 8 59-6 15-9 27-23 27-30 1-8 3-45 4-84 3-89 3-90 14-90 4 0 7 44 6 97-2 91-3 98-29 120-29 24-69 29-99 12z"/><path d="m2858 1607c-2-6-4-57-3-111 0-75 4-101 14-104s12 1 8 17c-3 11-1 24 4 27s5 12 0 22c-5 9-10 19-12 22-1 3 3 15 10 28 6 12 8 22 3 22s-8 18-6 40c2 38-10 63-18 37z"/></g></svg>