<svg clip-rule="evenodd" fill-rule="evenodd" stroke-linejoin="round" stroke-miterlimit="2" viewBox="0 0 13 24" xmlns="http://www.w3.org/2000/svg"><path d="M12.162.463 9.174.458c-3.358 0-5.529 2.227-5.529 5.672v2.615H.641a.47.47 0 0 0-.469.47v3.789c0 .259.21.469.469.469h3.004v9.56c0 .26.211.471.471.471h3.92c.26 0 .471-.211.471-.471v-9.56h3.512a.47.47 0 0 0 .471-.469l.001-3.789a.47.47 0 0 0-.471-.47H8.507V6.528c0-1.065.254-1.607 1.64-1.607h2.015c.258 0 .47-.211.47-.469V.933a.47.47 0 0 0-.47-.47" fill="#fff" fill-rule="nonzero"/></svg>