<svg clip-rule="evenodd" fill-rule="evenodd" stroke-linejoin="round" stroke-miterlimit="2" viewBox="0 0 29 19" xmlns="http://www.w3.org/2000/svg"><g fill="#fff"><path d="m9.841 15.192c-.43.208-1.034.31-1.808.31h-4.329v-4.69h4.389c.765.005 1.36.106 1.785.296.758.342 1.135.97 1.135 1.888 0 1.082-.39 1.81-1.172 2.196m-6.137-11.171h3.881c.853 0 1.556.091 2.108.274.638.265.958.804.958 1.626 0 .738-.245 1.253-.726 1.544-.484.29-1.114.436-1.886.436h-4.335zm8.315 5.096c.598-.301 1.051-.637 1.362-.999.552-.653.823-1.519.823-2.592 0-1.044-.271-1.937-.816-2.685-.909-1.219-2.447-1.843-4.622-1.875h-8.616v17.587h8.034c.905 0 1.743-.077 2.518-.236.776-.16 1.447-.455 2.015-.883.505-.374.927-.837 1.262-1.384.53-.825.796-1.761.796-2.804 0-1.01-.234-1.87-.695-2.576-.467-.707-1.152-1.225-2.061-1.553" fill-rule="nonzero"/><path d="m18.586 1.786h7.641v2.189h-7.641z"/><path d="m19.477 10.763c.127-.845.434-1.517.92-2.012.487-.494 1.176-.743 2.058-.745.813 0 1.493.233 2.046.7.547.471.856 1.154.918 2.057zm9.404-.337c-.158-1.019-.508-1.915-1.052-2.688-.597-.877-1.355-1.519-2.276-1.925-.918-.407-1.951-.611-3.101-.61-1.932 0-3.501.605-4.714 1.804-1.21 1.203-1.817 2.932-1.817 5.187 0 2.403.669 4.14 2.015 5.205 1.34 1.068 2.887 1.6 4.644 1.6 2.126 0 3.779-.633 4.96-1.895.756-.798 1.183-1.582 1.277-2.352h-3.52c-.204.381-.44.678-.711.895-.49.396-1.129.595-1.911.595-.745 0-1.376-.165-1.902-.491-.87-.523-1.324-1.439-1.382-2.742h9.607c.014-1.124-.022-1.988-.117-2.583" fill-rule="nonzero"/></g></svg>