<svg clip-rule="evenodd" fill-rule="evenodd" stroke-linejoin="round" stroke-miterlimit="2" viewBox="0 0 24 15" xmlns="http://www.w3.org/2000/svg"><g fill="#0541ff"><path d="m8.529 11.72c-.347.167-.835.25-1.459.25h-3.496v-3.787h3.544c.617.004 1.098.086 1.441.239.612.277.916.783.916 1.525 0 .873-.314 1.461-.946 1.773m-4.955-9.021h3.133c.689 0 1.257.074 1.702.222.516.214.773.649.773 1.313 0 .595-.196 1.012-.585 1.246-.391.235-.9.353-1.523.353h-3.5zm6.714 4.115c.483-.243.848-.514 1.099-.806.446-.528.665-1.226.665-2.093 0-.843-.219-1.564-.659-2.168-.734-.985-1.976-1.488-3.732-1.515h-6.957v14.202h6.486c.732 0 1.408-.063 2.034-.191.627-.129 1.168-.367 1.627-.713.407-.302.748-.676 1.02-1.117.428-.667.641-1.422.641-2.264 0-.816-.187-1.511-.56-2.081-.377-.571-.931-.989-1.664-1.254" fill-rule="nonzero"/><path d="m15.591.895h6.17v1.768h-6.17z"/><path d="m16.311 8.143c.102-.683.35-1.225.742-1.625.394-.399.95-.6 1.662-.601.657 0 1.205.188 1.653.565.441.38.69.932.741 1.661zm7.594-.272c-.128-.823-.41-1.546-.851-2.171-.481-.708-1.094-1.226-1.837-1.554-.742-.329-1.576-.494-2.505-.492-1.559 0-2.827.488-3.806 1.456-.977.971-1.467 2.368-1.467 4.188 0 1.941.541 3.343 1.627 4.204 1.082.862 2.331 1.291 3.75 1.291 1.717 0 3.052-.511 4.006-1.53.609-.643.955-1.277 1.03-1.899h-2.842c-.165.307-.355.548-.574.722-.396.321-.911.481-1.543.481-.602 0-1.111-.132-1.536-.396-.702-.423-1.069-1.162-1.116-2.215h7.757c.011-.907-.017-1.605-.093-2.085" fill-rule="nonzero"/></g></svg>