<svg clip-rule="evenodd" fill-rule="evenodd" stroke-linejoin="round" stroke-miterlimit="2" viewBox="0 0 13 24" xmlns="http://www.w3.org/2000/svg"><path d="m12.162.463-2.988-.005c-3.358 0-5.529 2.227-5.529 5.672v2.615h-3.004c-.259 0-.469.211-.469.47v3.789c0 .259.21.469.469.469h3.004v9.56c0 .26.211.471.471.471h3.92c.26 0 .471-.211.471-.471v-9.56h3.512c.26 0 .471-.21.471-.469l.001-3.789c0-.125-.05-.244-.139-.333-.086-.087-.207-.137-.332-.137h-3.513v-2.217c0-1.065.254-1.607 1.64-1.607h2.015c.258 0 .47-.211.47-.469v-3.519c0-.259-.21-.47-.47-.47" fill="#fff" fill-rule="nonzero"/></svg>