<svg clip-rule="evenodd" fill-rule="evenodd" stroke-linejoin="round" stroke-miterlimit="2" viewBox="0 0 23 22" xmlns="http://www.w3.org/2000/svg"><g fill="#fff" fill-rule="nonzero"><path d="m19.986 15.024c0 2.601-2.115 4.716-4.716 4.716h-8.085c-2.6 0-4.717-2.115-4.717-4.716v-8.085c0-2.601 2.117-4.716 4.717-4.716h8.085c2.601 0 4.716 2.115 4.716 4.716zm-4.716-14.822h-8.085c-3.72 0-6.737 3.016-6.737 6.737v8.085c0 3.721 3.017 6.737 6.737 6.737h8.085c3.72 0 6.737-3.016 6.737-6.737v-8.085c0-3.721-3.017-6.737-6.737-6.737"/><path d="m11.228 14.35c-1.856 0-3.368-1.512-3.368-3.369 0-1.858 1.512-3.368 3.368-3.368s3.369 1.51 3.369 3.368c0 1.857-1.513 3.369-3.369 3.369m0-8.759c-2.977 0-5.39 2.414-5.39 5.39 0 2.977 2.413 5.39 5.39 5.39s5.39-2.413 5.39-5.39c0-2.976-2.413-5.39-5.39-5.39"/><path d="m17.74 5.187c0 .396-.321.718-.719.718-.396 0-.718-.322-.718-.718 0-.397.322-.718.718-.718.398 0 .719.321.719.718"/></g></svg>